<svg width="186" height="56" viewBox="0 0 186 56" fill="none" xmlns="http://www.w3.org/2000/svg">
<mask id="path-1-outside-1_504_9264" maskUnits="userSpaceOnUse" x="0" y="0.634277" width="186" height="55" fill="black">
<rect fill="white" y="0.634277" width="186" height="55"/>
<path d="M23.8097 47.5243C23.8097 49.5309 23.413 51.0243 22.6197 52.0043C21.873 52.9376 20.7297 53.4043 19.1897 53.4043C17.323 53.4043 15.853 52.8443 14.7797 51.7243C13.753 50.6043 13.2397 48.9709 13.2397 46.8243C13.2397 43.1843 13.333 39.4509 13.5197 35.6243C13.753 31.7509 14.0797 27.9476 14.4997 24.2143C14.9197 20.4343 15.3864 16.8409 15.8997 13.4343L17.9997 15.2543C17.0197 16.0943 15.993 16.7943 14.9197 17.3543C13.8464 17.9143 12.773 18.3343 11.6997 18.6143C10.6264 18.8943 9.59968 19.0343 8.61968 19.0343C6.51968 19.0343 4.93302 18.4509 3.85968 17.2843C2.83302 16.0709 2.31968 14.7409 2.31968 13.2943C2.31968 12.2676 2.66968 11.3809 3.36968 10.6343C4.06968 9.84094 5.18968 9.35094 6.72968 9.16427C8.59635 8.93094 10.2764 8.39427 11.7697 7.55427C13.263 6.66761 14.6864 5.66427 16.0397 4.54427C16.693 3.98427 17.393 3.54094 18.1397 3.21428C18.933 2.84094 19.8197 2.65427 20.7997 2.65427C22.2464 2.65427 23.5064 3.05094 24.5797 3.84428C25.653 4.59094 26.423 5.59427 26.8897 6.85427C27.403 8.11427 27.4497 9.46761 27.0297 10.9143C26.2364 14.0409 25.6064 17.3543 25.1397 20.8543C24.7197 24.3543 24.4164 27.8076 24.2297 31.2143C24.043 34.6209 23.9264 37.7476 23.8797 40.5943C23.833 43.4409 23.8097 45.7509 23.8097 47.5243ZM55.506 53.4043C51.866 53.4043 48.646 52.7043 45.846 51.3043C43.046 49.8576 40.8527 47.6176 39.266 44.5843C37.726 41.5043 36.956 37.5843 36.956 32.8243C36.956 28.9976 37.516 25.6143 38.636 22.6743C39.756 19.6876 41.1327 17.1676 42.766 15.1143C44.446 13.0143 46.126 11.4509 47.806 10.4243C49.5327 9.35094 50.956 8.81427 52.076 8.81427C53.5227 8.81427 54.5493 9.04761 55.156 9.51427C55.7627 9.98094 56.066 10.8209 56.066 12.0343C56.066 13.0143 55.856 13.9243 55.436 14.7643C55.0627 15.5576 54.5493 16.2576 53.896 16.8643C52.4027 18.1709 51.1893 19.6409 50.256 21.2743C49.3227 22.9076 48.646 24.6809 48.226 26.5943C47.806 28.5076 47.596 30.5843 47.596 32.8243C47.596 34.7376 47.876 36.4643 48.436 38.0043C49.0427 39.4976 49.9527 40.6876 51.166 41.5743C52.3793 42.4609 53.896 42.9043 55.716 42.9043C57.7693 42.9043 59.7293 42.1576 61.596 40.6643C63.5093 39.1709 65.0493 36.9776 66.216 34.0843C67.4293 31.1909 68.036 27.6443 68.036 23.4443C68.036 21.5776 67.8027 19.8976 67.336 18.4043C66.916 16.8643 66.216 15.6509 65.236 14.7643C64.256 13.8776 62.9493 13.4343 61.316 13.4343C59.636 13.4343 58.1893 13.6676 56.976 14.1343C55.7627 14.6009 54.6893 15.2543 53.756 16.0943C52.8227 16.8876 51.8893 17.7509 50.956 18.6843C50.396 19.1976 49.7893 19.6409 49.136 20.0143C48.4827 20.3876 47.806 20.5743 47.106 20.5743C45.6127 20.5743 44.2827 19.9909 43.116 18.8243C41.996 17.6576 41.436 16.2343 41.436 14.5543C41.436 13.4809 41.8793 12.2909 42.766 10.9843C43.6527 9.63094 44.9593 8.34761 46.686 7.13427C48.4127 5.87427 50.4893 4.84761 52.916 4.05428C55.3893 3.26094 58.1893 2.86428 61.316 2.86428C65.3293 2.86428 68.596 3.70428 71.116 5.38428C73.6827 7.01761 75.5727 9.37428 76.786 12.4543C78.046 15.5343 78.676 19.1976 78.676 23.4443C78.676 28.4843 77.9993 32.8943 76.646 36.6743C75.3393 40.4076 73.566 43.5109 71.326 45.9843C69.1327 48.4576 66.6593 50.3243 63.906 51.5843C61.1527 52.7976 58.3527 53.4043 55.506 53.4043ZM108.583 53.4043C104.943 53.4043 101.723 52.7043 98.923 51.3043C96.123 49.8576 93.9296 47.6176 92.343 44.5843C90.803 41.5043 90.033 37.5843 90.033 32.8243C90.033 28.9976 90.593 25.6143 91.713 22.6743C92.833 19.6876 94.2096 17.1676 95.843 15.1143C97.523 13.0143 99.203 11.4509 100.883 10.4243C102.61 9.35094 104.033 8.81427 105.153 8.81427C106.6 8.81427 107.626 9.04761 108.233 9.51427C108.84 9.98094 109.143 10.8209 109.143 12.0343C109.143 13.0143 108.933 13.9243 108.513 14.7643C108.14 15.5576 107.626 16.2576 106.973 16.8643C105.48 18.1709 104.266 19.6409 103.333 21.2743C102.4 22.9076 101.723 24.6809 101.303 26.5943C100.883 28.5076 100.673 30.5843 100.673 32.8243C100.673 34.7376 100.953 36.4643 101.513 38.0043C102.12 39.4976 103.03 40.6876 104.243 41.5743C105.456 42.4609 106.973 42.9043 108.793 42.9043C110.846 42.9043 112.806 42.1576 114.673 40.6643C116.586 39.1709 118.126 36.9776 119.293 34.0843C120.506 31.1909 121.113 27.6443 121.113 23.4443C121.113 21.5776 120.88 19.8976 120.413 18.4043C119.993 16.8643 119.293 15.6509 118.313 14.7643C117.333 13.8776 116.026 13.4343 114.393 13.4343C112.713 13.4343 111.266 13.6676 110.053 14.1343C108.84 14.6009 107.766 15.2543 106.833 16.0943C105.9 16.8876 104.966 17.7509 104.033 18.6843C103.473 19.1976 102.866 19.6409 102.213 20.0143C101.56 20.3876 100.883 20.5743 100.183 20.5743C98.6896 20.5743 97.3596 19.9909 96.193 18.8243C95.073 17.6576 94.513 16.2343 94.513 14.5543C94.513 13.4809 94.9563 12.2909 95.843 10.9843C96.7296 9.63094 98.0363 8.34761 99.763 7.13427C101.49 5.87427 103.566 4.84761 105.993 4.05428C108.466 3.26094 111.266 2.86428 114.393 2.86428C118.406 2.86428 121.673 3.70428 124.193 5.38428C126.76 7.01761 128.65 9.37428 129.863 12.4543C131.123 15.5343 131.753 19.1976 131.753 23.4443C131.753 28.4843 131.076 32.8943 129.723 36.6743C128.416 40.4076 126.643 43.5109 124.403 45.9843C122.21 48.4576 119.736 50.3243 116.983 51.5843C114.23 52.7976 111.43 53.4043 108.583 53.4043ZM148.287 36.8143C146.7 36.9076 145.487 36.4409 144.647 35.4143C143.807 34.3409 143.387 33.1043 143.387 31.7043C143.387 30.3976 143.713 29.2776 144.367 28.3443C145.067 27.3643 146.56 26.6176 148.847 26.1043C151.693 25.4976 154.657 25.0076 157.737 24.6343C160.863 24.2609 163.967 23.9809 167.047 23.7943C170.127 23.6076 173.043 23.5143 175.797 23.5143C178.177 23.5143 180.043 24.0276 181.397 25.0543C182.75 26.0809 183.427 27.4576 183.427 29.1843C183.427 30.2576 183.123 31.1443 182.517 31.8443C181.957 32.4976 180.813 32.8243 179.087 32.8243C174.28 32.8709 170.243 33.0809 166.977 33.4543C163.71 33.8276 160.957 34.2709 158.717 34.7843C156.477 35.2509 154.54 35.6943 152.907 36.1143C151.32 36.4876 149.78 36.7209 148.287 36.8143ZM163.617 50.6743C162.31 50.6743 161.143 50.2076 160.117 49.2743C159.137 48.2943 158.577 46.7776 158.437 44.7243C158.203 41.6443 158.11 38.7976 158.157 36.1843C158.203 33.5243 158.297 31.0043 158.437 28.6243C158.623 26.1976 158.763 23.8409 158.857 21.5543C158.997 19.2209 159.02 16.8409 158.927 14.4143C158.88 13.0143 159.137 11.8943 159.697 11.0543C160.257 10.1676 161.283 9.72427 162.777 9.72427C164.737 9.72427 166.3 10.4009 167.467 11.7543C168.633 13.0609 169.217 15.2309 169.217 18.2643C169.217 20.3643 169.17 22.6976 169.077 25.2643C168.983 27.8309 168.867 30.3976 168.727 32.9643C168.633 35.5309 168.54 37.9109 168.447 40.1043C168.353 42.2509 168.307 43.9776 168.307 45.2843C168.307 47.1043 167.863 48.4576 166.977 49.3443C166.137 50.2309 165.017 50.6743 163.617 50.6743Z"/>
</mask>
<path d="M23.8097 47.5243C23.8097 49.5309 23.413 51.0243 22.6197 52.0043C21.873 52.9376 20.7297 53.4043 19.1897 53.4043C17.323 53.4043 15.853 52.8443 14.7797 51.7243C13.753 50.6043 13.2397 48.9709 13.2397 46.8243C13.2397 43.1843 13.333 39.4509 13.5197 35.6243C13.753 31.7509 14.0797 27.9476 14.4997 24.2143C14.9197 20.4343 15.3864 16.8409 15.8997 13.4343L17.9997 15.2543C17.0197 16.0943 15.993 16.7943 14.9197 17.3543C13.8464 17.9143 12.773 18.3343 11.6997 18.6143C10.6264 18.8943 9.59968 19.0343 8.61968 19.0343C6.51968 19.0343 4.93302 18.4509 3.85968 17.2843C2.83302 16.0709 2.31968 14.7409 2.31968 13.2943C2.31968 12.2676 2.66968 11.3809 3.36968 10.6343C4.06968 9.84094 5.18968 9.35094 6.72968 9.16427C8.59635 8.93094 10.2764 8.39427 11.7697 7.55427C13.263 6.66761 14.6864 5.66427 16.0397 4.54427C16.693 3.98427 17.393 3.54094 18.1397 3.21428C18.933 2.84094 19.8197 2.65427 20.7997 2.65427C22.2464 2.65427 23.5064 3.05094 24.5797 3.84428C25.653 4.59094 26.423 5.59427 26.8897 6.85427C27.403 8.11427 27.4497 9.46761 27.0297 10.9143C26.2364 14.0409 25.6064 17.3543 25.1397 20.8543C24.7197 24.3543 24.4164 27.8076 24.2297 31.2143C24.043 34.6209 23.9264 37.7476 23.8797 40.5943C23.833 43.4409 23.8097 45.7509 23.8097 47.5243ZM55.506 53.4043C51.866 53.4043 48.646 52.7043 45.846 51.3043C43.046 49.8576 40.8527 47.6176 39.266 44.5843C37.726 41.5043 36.956 37.5843 36.956 32.8243C36.956 28.9976 37.516 25.6143 38.636 22.6743C39.756 19.6876 41.1327 17.1676 42.766 15.1143C44.446 13.0143 46.126 11.4509 47.806 10.4243C49.5327 9.35094 50.956 8.81427 52.076 8.81427C53.5227 8.81427 54.5493 9.04761 55.156 9.51427C55.7627 9.98094 56.066 10.8209 56.066 12.0343C56.066 13.0143 55.856 13.9243 55.436 14.7643C55.0627 15.5576 54.5493 16.2576 53.896 16.8643C52.4027 18.1709 51.1893 19.6409 50.256 21.2743C49.3227 22.9076 48.646 24.6809 48.226 26.5943C47.806 28.5076 47.596 30.5843 47.596 32.8243C47.596 34.7376 47.876 36.4643 48.436 38.0043C49.0427 39.4976 49.9527 40.6876 51.166 41.5743C52.3793 42.4609 53.896 42.9043 55.716 42.9043C57.7693 42.9043 59.7293 42.1576 61.596 40.6643C63.5093 39.1709 65.0493 36.9776 66.216 34.0843C67.4293 31.1909 68.036 27.6443 68.036 23.4443C68.036 21.5776 67.8027 19.8976 67.336 18.4043C66.916 16.8643 66.216 15.6509 65.236 14.7643C64.256 13.8776 62.9493 13.4343 61.316 13.4343C59.636 13.4343 58.1893 13.6676 56.976 14.1343C55.7627 14.6009 54.6893 15.2543 53.756 16.0943C52.8227 16.8876 51.8893 17.7509 50.956 18.6843C50.396 19.1976 49.7893 19.6409 49.136 20.0143C48.4827 20.3876 47.806 20.5743 47.106 20.5743C45.6127 20.5743 44.2827 19.9909 43.116 18.8243C41.996 17.6576 41.436 16.2343 41.436 14.5543C41.436 13.4809 41.8793 12.2909 42.766 10.9843C43.6527 9.63094 44.9593 8.34761 46.686 7.13427C48.4127 5.87427 50.4893 4.84761 52.916 4.05428C55.3893 3.26094 58.1893 2.86428 61.316 2.86428C65.3293 2.86428 68.596 3.70428 71.116 5.38428C73.6827 7.01761 75.5727 9.37428 76.786 12.4543C78.046 15.5343 78.676 19.1976 78.676 23.4443C78.676 28.4843 77.9993 32.8943 76.646 36.6743C75.3393 40.4076 73.566 43.5109 71.326 45.9843C69.1327 48.4576 66.6593 50.3243 63.906 51.5843C61.1527 52.7976 58.3527 53.4043 55.506 53.4043ZM108.583 53.4043C104.943 53.4043 101.723 52.7043 98.923 51.3043C96.123 49.8576 93.9296 47.6176 92.343 44.5843C90.803 41.5043 90.033 37.5843 90.033 32.8243C90.033 28.9976 90.593 25.6143 91.713 22.6743C92.833 19.6876 94.2096 17.1676 95.843 15.1143C97.523 13.0143 99.203 11.4509 100.883 10.4243C102.61 9.35094 104.033 8.81427 105.153 8.81427C106.6 8.81427 107.626 9.04761 108.233 9.51427C108.84 9.98094 109.143 10.8209 109.143 12.0343C109.143 13.0143 108.933 13.9243 108.513 14.7643C108.14 15.5576 107.626 16.2576 106.973 16.8643C105.48 18.1709 104.266 19.6409 103.333 21.2743C102.4 22.9076 101.723 24.6809 101.303 26.5943C100.883 28.5076 100.673 30.5843 100.673 32.8243C100.673 34.7376 100.953 36.4643 101.513 38.0043C102.12 39.4976 103.03 40.6876 104.243 41.5743C105.456 42.4609 106.973 42.9043 108.793 42.9043C110.846 42.9043 112.806 42.1576 114.673 40.6643C116.586 39.1709 118.126 36.9776 119.293 34.0843C120.506 31.1909 121.113 27.6443 121.113 23.4443C121.113 21.5776 120.88 19.8976 120.413 18.4043C119.993 16.8643 119.293 15.6509 118.313 14.7643C117.333 13.8776 116.026 13.4343 114.393 13.4343C112.713 13.4343 111.266 13.6676 110.053 14.1343C108.84 14.6009 107.766 15.2543 106.833 16.0943C105.9 16.8876 104.966 17.7509 104.033 18.6843C103.473 19.1976 102.866 19.6409 102.213 20.0143C101.56 20.3876 100.883 20.5743 100.183 20.5743C98.6896 20.5743 97.3596 19.9909 96.193 18.8243C95.073 17.6576 94.513 16.2343 94.513 14.5543C94.513 13.4809 94.9563 12.2909 95.843 10.9843C96.7296 9.63094 98.0363 8.34761 99.763 7.13427C101.49 5.87427 103.566 4.84761 105.993 4.05428C108.466 3.26094 111.266 2.86428 114.393 2.86428C118.406 2.86428 121.673 3.70428 124.193 5.38428C126.76 7.01761 128.65 9.37428 129.863 12.4543C131.123 15.5343 131.753 19.1976 131.753 23.4443C131.753 28.4843 131.076 32.8943 129.723 36.6743C128.416 40.4076 126.643 43.5109 124.403 45.9843C122.21 48.4576 119.736 50.3243 116.983 51.5843C114.23 52.7976 111.43 53.4043 108.583 53.4043ZM148.287 36.8143C146.7 36.9076 145.487 36.4409 144.647 35.4143C143.807 34.3409 143.387 33.1043 143.387 31.7043C143.387 30.3976 143.713 29.2776 144.367 28.3443C145.067 27.3643 146.56 26.6176 148.847 26.1043C151.693 25.4976 154.657 25.0076 157.737 24.6343C160.863 24.2609 163.967 23.9809 167.047 23.7943C170.127 23.6076 173.043 23.5143 175.797 23.5143C178.177 23.5143 180.043 24.0276 181.397 25.0543C182.75 26.0809 183.427 27.4576 183.427 29.1843C183.427 30.2576 183.123 31.1443 182.517 31.8443C181.957 32.4976 180.813 32.8243 179.087 32.8243C174.28 32.8709 170.243 33.0809 166.977 33.4543C163.71 33.8276 160.957 34.2709 158.717 34.7843C156.477 35.2509 154.54 35.6943 152.907 36.1143C151.32 36.4876 149.78 36.7209 148.287 36.8143ZM163.617 50.6743C162.31 50.6743 161.143 50.2076 160.117 49.2743C159.137 48.2943 158.577 46.7776 158.437 44.7243C158.203 41.6443 158.11 38.7976 158.157 36.1843C158.203 33.5243 158.297 31.0043 158.437 28.6243C158.623 26.1976 158.763 23.8409 158.857 21.5543C158.997 19.2209 159.02 16.8409 158.927 14.4143C158.88 13.0143 159.137 11.8943 159.697 11.0543C160.257 10.1676 161.283 9.72427 162.777 9.72427C164.737 9.72427 166.3 10.4009 167.467 11.7543C168.633 13.0609 169.217 15.2309 169.217 18.2643C169.217 20.3643 169.17 22.6976 169.077 25.2643C168.983 27.8309 168.867 30.3976 168.727 32.9643C168.633 35.5309 168.54 37.9109 168.447 40.1043C168.353 42.2509 168.307 43.9776 168.307 45.2843C168.307 47.1043 167.863 48.4576 166.977 49.3443C166.137 50.2309 165.017 50.6743 163.617 50.6743Z" fill="#F5F5F5"/>
<path d="M23.8097 47.5243C23.8097 49.5309 23.413 51.0243 22.6197 52.0043C21.873 52.9376 20.7297 53.4043 19.1897 53.4043C17.323 53.4043 15.853 52.8443 14.7797 51.7243C13.753 50.6043 13.2397 48.9709 13.2397 46.8243C13.2397 43.1843 13.333 39.4509 13.5197 35.6243C13.753 31.7509 14.0797 27.9476 14.4997 24.2143C14.9197 20.4343 15.3864 16.8409 15.8997 13.4343L17.9997 15.2543C17.0197 16.0943 15.993 16.7943 14.9197 17.3543C13.8464 17.9143 12.773 18.3343 11.6997 18.6143C10.6264 18.8943 9.59968 19.0343 8.61968 19.0343C6.51968 19.0343 4.93302 18.4509 3.85968 17.2843C2.83302 16.0709 2.31968 14.7409 2.31968 13.2943C2.31968 12.2676 2.66968 11.3809 3.36968 10.6343C4.06968 9.84094 5.18968 9.35094 6.72968 9.16427C8.59635 8.93094 10.2764 8.39427 11.7697 7.55427C13.263 6.66761 14.6864 5.66427 16.0397 4.54427C16.693 3.98427 17.393 3.54094 18.1397 3.21428C18.933 2.84094 19.8197 2.65427 20.7997 2.65427C22.2464 2.65427 23.5064 3.05094 24.5797 3.84428C25.653 4.59094 26.423 5.59427 26.8897 6.85427C27.403 8.11427 27.4497 9.46761 27.0297 10.9143C26.2364 14.0409 25.6064 17.3543 25.1397 20.8543C24.7197 24.3543 24.4164 27.8076 24.2297 31.2143C24.043 34.6209 23.9264 37.7476 23.8797 40.5943C23.833 43.4409 23.8097 45.7509 23.8097 47.5243ZM55.506 53.4043C51.866 53.4043 48.646 52.7043 45.846 51.3043C43.046 49.8576 40.8527 47.6176 39.266 44.5843C37.726 41.5043 36.956 37.5843 36.956 32.8243C36.956 28.9976 37.516 25.6143 38.636 22.6743C39.756 19.6876 41.1327 17.1676 42.766 15.1143C44.446 13.0143 46.126 11.4509 47.806 10.4243C49.5327 9.35094 50.956 8.81427 52.076 8.81427C53.5227 8.81427 54.5493 9.04761 55.156 9.51427C55.7627 9.98094 56.066 10.8209 56.066 12.0343C56.066 13.0143 55.856 13.9243 55.436 14.7643C55.0627 15.5576 54.5493 16.2576 53.896 16.8643C52.4027 18.1709 51.1893 19.6409 50.256 21.2743C49.3227 22.9076 48.646 24.6809 48.226 26.5943C47.806 28.5076 47.596 30.5843 47.596 32.8243C47.596 34.7376 47.876 36.4643 48.436 38.0043C49.0427 39.4976 49.9527 40.6876 51.166 41.5743C52.3793 42.4609 53.896 42.9043 55.716 42.9043C57.7693 42.9043 59.7293 42.1576 61.596 40.6643C63.5093 39.1709 65.0493 36.9776 66.216 34.0843C67.4293 31.1909 68.036 27.6443 68.036 23.4443C68.036 21.5776 67.8027 19.8976 67.336 18.4043C66.916 16.8643 66.216 15.6509 65.236 14.7643C64.256 13.8776 62.9493 13.4343 61.316 13.4343C59.636 13.4343 58.1893 13.6676 56.976 14.1343C55.7627 14.6009 54.6893 15.2543 53.756 16.0943C52.8227 16.8876 51.8893 17.7509 50.956 18.6843C50.396 19.1976 49.7893 19.6409 49.136 20.0143C48.4827 20.3876 47.806 20.5743 47.106 20.5743C45.6127 20.5743 44.2827 19.9909 43.116 18.8243C41.996 17.6576 41.436 16.2343 41.436 14.5543C41.436 13.4809 41.8793 12.2909 42.766 10.9843C43.6527 9.63094 44.9593 8.34761 46.686 7.13427C48.4127 5.87427 50.4893 4.84761 52.916 4.05428C55.3893 3.26094 58.1893 2.86428 61.316 2.86428C65.3293 2.86428 68.596 3.70428 71.116 5.38428C73.6827 7.01761 75.5727 9.37428 76.786 12.4543C78.046 15.5343 78.676 19.1976 78.676 23.4443C78.676 28.4843 77.9993 32.8943 76.646 36.6743C75.3393 40.4076 73.566 43.5109 71.326 45.9843C69.1327 48.4576 66.6593 50.3243 63.906 51.5843C61.1527 52.7976 58.3527 53.4043 55.506 53.4043ZM108.583 53.4043C104.943 53.4043 101.723 52.7043 98.923 51.3043C96.123 49.8576 93.9296 47.6176 92.343 44.5843C90.803 41.5043 90.033 37.5843 90.033 32.8243C90.033 28.9976 90.593 25.6143 91.713 22.6743C92.833 19.6876 94.2096 17.1676 95.843 15.1143C97.523 13.0143 99.203 11.4509 100.883 10.4243C102.61 9.35094 104.033 8.81427 105.153 8.81427C106.6 8.81427 107.626 9.04761 108.233 9.51427C108.84 9.98094 109.143 10.8209 109.143 12.0343C109.143 13.0143 108.933 13.9243 108.513 14.7643C108.14 15.5576 107.626 16.2576 106.973 16.8643C105.48 18.1709 104.266 19.6409 103.333 21.2743C102.4 22.9076 101.723 24.6809 101.303 26.5943C100.883 28.5076 100.673 30.5843 100.673 32.8243C100.673 34.7376 100.953 36.4643 101.513 38.0043C102.12 39.4976 103.03 40.6876 104.243 41.5743C105.456 42.4609 106.973 42.9043 108.793 42.9043C110.846 42.9043 112.806 42.1576 114.673 40.6643C116.586 39.1709 118.126 36.9776 119.293 34.0843C120.506 31.1909 121.113 27.6443 121.113 23.4443C121.113 21.5776 120.88 19.8976 120.413 18.4043C119.993 16.8643 119.293 15.6509 118.313 14.7643C117.333 13.8776 116.026 13.4343 114.393 13.4343C112.713 13.4343 111.266 13.6676 110.053 14.1343C108.84 14.6009 107.766 15.2543 106.833 16.0943C105.9 16.8876 104.966 17.7509 104.033 18.6843C103.473 19.1976 102.866 19.6409 102.213 20.0143C101.56 20.3876 100.883 20.5743 100.183 20.5743C98.6896 20.5743 97.3596 19.9909 96.193 18.8243C95.073 17.6576 94.513 16.2343 94.513 14.5543C94.513 13.4809 94.9563 12.2909 95.843 10.9843C96.7296 9.63094 98.0363 8.34761 99.763 7.13427C101.49 5.87427 103.566 4.84761 105.993 4.05428C108.466 3.26094 111.266 2.86428 114.393 2.86428C118.406 2.86428 121.673 3.70428 124.193 5.38428C126.76 7.01761 128.65 9.37428 129.863 12.4543C131.123 15.5343 131.753 19.1976 131.753 23.4443C131.753 28.4843 131.076 32.8943 129.723 36.6743C128.416 40.4076 126.643 43.5109 124.403 45.9843C122.21 48.4576 119.736 50.3243 116.983 51.5843C114.23 52.7976 111.43 53.4043 108.583 53.4043ZM148.287 36.8143C146.7 36.9076 145.487 36.4409 144.647 35.4143C143.807 34.3409 143.387 33.1043 143.387 31.7043C143.387 30.3976 143.713 29.2776 144.367 28.3443C145.067 27.3643 146.56 26.6176 148.847 26.1043C151.693 25.4976 154.657 25.0076 157.737 24.6343C160.863 24.2609 163.967 23.9809 167.047 23.7943C170.127 23.6076 173.043 23.5143 175.797 23.5143C178.177 23.5143 180.043 24.0276 181.397 25.0543C182.75 26.0809 183.427 27.4576 183.427 29.1843C183.427 30.2576 183.123 31.1443 182.517 31.8443C181.957 32.4976 180.813 32.8243 179.087 32.8243C174.28 32.8709 170.243 33.0809 166.977 33.4543C163.71 33.8276 160.957 34.2709 158.717 34.7843C156.477 35.2509 154.54 35.6943 152.907 36.1143C151.32 36.4876 149.78 36.7209 148.287 36.8143ZM163.617 50.6743C162.31 50.6743 161.143 50.2076 160.117 49.2743C159.137 48.2943 158.577 46.7776 158.437 44.7243C158.203 41.6443 158.11 38.7976 158.157 36.1843C158.203 33.5243 158.297 31.0043 158.437 28.6243C158.623 26.1976 158.763 23.8409 158.857 21.5543C158.997 19.2209 159.02 16.8409 158.927 14.4143C158.88 13.0143 159.137 11.8943 159.697 11.0543C160.257 10.1676 161.283 9.72427 162.777 9.72427C164.737 9.72427 166.3 10.4009 167.467 11.7543C168.633 13.0609 169.217 15.2309 169.217 18.2643C169.217 20.3643 169.17 22.6976 169.077 25.2643C168.983 27.8309 168.867 30.3976 168.727 32.9643C168.633 35.5309 168.54 37.9109 168.447 40.1043C168.353 42.2509 168.307 43.9776 168.307 45.2843C168.307 47.1043 167.863 48.4576 166.977 49.3443C166.137 50.2309 165.017 50.6743 163.617 50.6743Z" fill="url(#paint0_linear_504_9264)"/>
<path d="M22.6197 52.0043L21.0652 50.7459L21.0579 50.7549L22.6197 52.0043ZM14.7797 51.7243L13.3054 53.0757L13.3204 53.0921L13.3357 53.1081L14.7797 51.7243ZM13.5197 35.6243L11.5233 35.504L11.5226 35.5154L11.5221 35.5268L13.5197 35.6243ZM14.4997 24.2143L16.4871 24.4379L16.4875 24.4351L14.4997 24.2143ZM15.8997 13.4343L17.2095 11.9229L14.4635 9.54297L13.922 13.1363L15.8997 13.4343ZM17.9997 15.2543L19.3013 16.7728L21.0631 15.2626L19.3095 13.7429L17.9997 15.2543ZM14.9197 17.3543L15.8448 19.1274L15.8448 19.1274L14.9197 17.3543ZM11.6997 18.6143L11.1948 16.679L11.1948 16.679L11.6997 18.6143ZM3.85968 17.2843L2.33291 18.5762L2.35972 18.6078L2.38782 18.6384L3.85968 17.2843ZM3.36968 10.6343L4.82876 12.0022L4.8494 11.9801L4.86936 11.9575L3.36968 10.6343ZM6.72968 9.16427L6.97035 11.1498L6.97775 11.1488L6.72968 9.16427ZM11.7697 7.55427L12.7502 9.29742L12.7706 9.28594L12.7908 9.27398L11.7697 7.55427ZM16.0397 4.54427L17.3148 6.08506L17.3281 6.07404L17.3413 6.06279L16.0397 4.54427ZM18.1397 3.21428L18.9413 5.04659L18.9665 5.03559L18.9913 5.02391L18.1397 3.21428ZM24.5797 3.84428L23.3909 5.45263L23.414 5.46969L23.4376 5.48609L24.5797 3.84428ZM26.8897 6.85427L25.0142 7.5489L25.0254 7.57907L25.0375 7.60887L26.8897 6.85427ZM27.0297 10.9143L25.109 10.3567L25.0995 10.3894L25.0911 10.4224L27.0297 10.9143ZM25.1397 20.8543L23.1572 20.5899L23.1555 20.603L23.1539 20.616L25.1397 20.8543ZM24.2297 31.2143L22.2327 31.1049L22.2327 31.1049L24.2297 31.2143ZM23.8797 40.5943L25.8794 40.6271L25.8794 40.6271L23.8797 40.5943ZM23.8097 47.5243H21.8097C21.8097 49.3266 21.4433 50.2789 21.0652 50.7459L22.6197 52.0043L24.1742 53.2627C25.3828 51.7697 25.8097 49.7352 25.8097 47.5243H23.8097ZM22.6197 52.0043L21.0579 50.7549C20.7955 51.0829 20.3123 51.4043 19.1897 51.4043V53.4043V55.4043C21.1471 55.4043 22.9505 54.7923 24.1814 53.2537L22.6197 52.0043ZM19.1897 53.4043V51.4043C17.7489 51.4043 16.8445 50.9883 16.2237 50.3405L14.7797 51.7243L13.3357 53.1081C14.8616 54.7003 16.8972 55.4043 19.1897 55.4043V53.4043ZM14.7797 51.7243L16.254 50.3728C15.6829 49.7498 15.2397 48.6768 15.2397 46.8243H13.2397H11.2397C11.2397 49.2651 11.8232 51.4588 13.3054 53.0757L14.7797 51.7243ZM13.2397 46.8243H15.2397C15.2397 43.2184 15.3321 39.5176 15.5173 35.7217L13.5197 35.6243L11.5221 35.5268C11.3339 39.3843 11.2397 43.1501 11.2397 46.8243H13.2397ZM13.5197 35.6243L15.5161 35.7445C15.7474 31.9046 16.0711 28.1357 16.4871 24.4379L14.4997 24.2143L12.5122 23.9907C12.0882 27.7595 11.7586 31.5973 11.5233 35.504L13.5197 35.6243ZM14.4997 24.2143L16.4875 24.4351C16.9049 20.6783 17.3683 17.1108 17.8774 13.7323L15.8997 13.4343L13.922 13.1363C13.4044 16.5711 12.9345 20.1902 12.5119 23.9934L14.4997 24.2143ZM15.8997 13.4343L14.5898 14.9457L16.6898 16.7657L17.9997 15.2543L19.3095 13.7429L17.2095 11.9229L15.8997 13.4343ZM17.9997 15.2543L16.6981 13.7358C15.8259 14.4833 14.9246 15.0959 13.9946 15.5811L14.9197 17.3543L15.8448 19.1274C17.0615 18.4927 18.2135 17.7052 19.3013 16.7728L17.9997 15.2543ZM14.9197 17.3543L13.9946 15.5811C13.0427 16.0777 12.1098 16.4403 11.1948 16.679L11.6997 18.6143L12.2045 20.5495C13.4362 20.2282 14.65 19.7508 15.8448 19.1274L14.9197 17.3543ZM11.6997 18.6143L11.1948 16.679C10.2651 16.9216 9.40865 17.0343 8.61968 17.0343V19.0343V21.0343C9.79072 21.0343 10.9876 20.867 12.2045 20.5495L11.6997 18.6143ZM8.61968 19.0343V17.0343C6.88847 17.0343 5.91397 16.5632 5.33155 15.9302L3.85968 17.2843L2.38782 18.6384C3.95207 20.3387 6.1509 21.0343 8.61968 21.0343V19.0343ZM3.85968 17.2843L5.38646 15.9924C4.63302 15.102 4.31968 14.2201 4.31968 13.2943H2.31968H0.319685C0.319685 15.2617 1.03302 17.0399 2.33291 18.5762L3.85968 17.2843ZM2.31968 13.2943H4.31968C4.31968 12.774 4.47749 12.3768 4.82876 12.0022L3.36968 10.6343L1.91061 9.26639C0.861881 10.385 0.319685 11.7613 0.319685 13.2943H2.31968ZM3.36968 10.6343L4.86936 11.9575C5.12237 11.6708 5.69459 11.3044 6.97035 11.1497L6.72968 9.16427L6.48902 7.17881C4.68478 7.3975 3.017 8.01111 1.87001 9.31103L3.36968 10.6343ZM6.72968 9.16427L6.97775 11.1488C9.07661 10.8865 11.0095 10.2766 12.7502 9.29742L11.7697 7.55427L10.7892 5.81112C9.54323 6.51196 8.1161 6.97541 6.48162 7.17972L6.72968 9.16427ZM11.7697 7.55427L12.7908 9.27398C14.3743 8.33375 15.8825 7.27044 17.3148 6.08506L16.0397 4.54427L14.7645 3.00349C13.4902 4.05811 12.1517 5.00146 10.7486 5.83456L11.7697 7.55427ZM16.0397 4.54427L17.3413 6.06279C17.8528 5.62433 18.3858 5.28964 18.9413 5.04659L18.1397 3.21428L17.3381 1.38196C16.4003 1.79224 15.5332 2.34421 14.7381 3.02576L16.0397 4.54427ZM18.1397 3.21428L18.9913 5.02391C19.4884 4.78999 20.0792 4.65427 20.7997 4.65427V2.65427V0.654274C19.5602 0.654274 18.3777 0.891888 17.2881 1.40464L18.1397 3.21428ZM20.7997 2.65427V4.65427C21.8564 4.65427 22.6911 4.93535 23.3909 5.45263L24.5797 3.84428L25.7685 2.23592C24.3216 1.16653 22.6363 0.654274 20.7997 0.654274V2.65427ZM24.5797 3.84428L23.4376 5.48609C24.1657 5.99259 24.6853 6.66085 25.0142 7.5489L26.8897 6.85427L28.7652 6.15965C28.1608 4.5277 27.1404 3.1893 25.7218 2.20246L24.5797 3.84428ZM26.8897 6.85427L25.0375 7.60887C25.3625 8.40658 25.4177 9.29344 25.109 10.3567L27.0297 10.9143L28.9504 11.4719C29.4817 9.64178 29.4435 7.82196 28.7419 6.09968L26.8897 6.85427ZM27.0297 10.9143L25.0911 10.4224C24.2771 13.6306 23.6332 17.0204 23.1572 20.5899L25.1397 20.8543L27.1221 21.1186C27.5795 17.6881 28.1956 14.4512 28.9683 11.4062L27.0297 10.9143ZM25.1397 20.8543L23.1539 20.616C22.729 24.1574 22.4218 27.6537 22.2327 31.1049L24.2297 31.2143L26.2267 31.3237C26.4109 27.9615 26.7104 24.5512 27.1254 21.0926L25.1397 20.8543ZM24.2297 31.2143L22.2327 31.1049C22.0449 34.5322 21.9271 37.6849 21.88 40.5615L23.8797 40.5943L25.8794 40.6271C25.9256 37.8104 26.0412 34.7097 26.2267 31.3237L24.2297 31.2143ZM23.8797 40.5943L21.88 40.5615C21.8332 43.4134 21.8097 45.7355 21.8097 47.5243H23.8097H25.8097C25.8097 45.7664 25.8328 43.4685 25.8794 40.6271L23.8797 40.5943ZM45.846 51.3043L44.928 53.0811L44.9397 53.0872L44.9516 53.0931L45.846 51.3043ZM39.266 44.5843L37.4772 45.4787L37.4853 45.4951L37.4938 45.5113L39.266 44.5843ZM38.636 22.6743L40.505 23.3863L40.5087 23.3765L38.636 22.6743ZM42.766 15.1143L41.2043 13.8649L41.2008 13.8692L42.766 15.1143ZM47.806 10.4243L48.8489 12.1308L48.8554 12.1269L48.8619 12.1228L47.806 10.4243ZM55.156 9.51427L56.3754 7.92903L56.3754 7.92903L55.156 9.51427ZM55.436 14.7643L53.6472 13.8698L53.6365 13.8911L53.6264 13.9127L55.436 14.7643ZM53.896 16.8643L55.213 18.3694L55.2353 18.35L55.2569 18.3299L53.896 16.8643ZM50.256 21.2743L48.5195 20.282L48.5195 20.282L50.256 21.2743ZM48.226 26.5943L50.1795 27.0231L50.1795 27.0231L48.226 26.5943ZM48.436 38.0043L46.5564 38.6878L46.5691 38.7226L46.5831 38.757L48.436 38.0043ZM51.166 41.5743L52.346 39.9595L52.346 39.9595L51.166 41.5743ZM61.596 40.6643L60.3655 39.0876L60.356 39.095L60.3466 39.1025L61.596 40.6643ZM66.216 34.0843L64.3716 33.3108L64.3663 33.3235L64.3611 33.3363L66.216 34.0843ZM67.336 18.4043L65.4065 18.9305L65.4161 18.9659L65.4271 19.0008L67.336 18.4043ZM56.976 14.1343L57.694 16.001L57.694 16.001L56.976 14.1343ZM53.756 16.0943L55.0513 17.6182L55.0729 17.5998L55.0939 17.5809L53.756 16.0943ZM50.956 18.6843L52.3075 20.1586L52.3395 20.1292L52.3702 20.0985L50.956 18.6843ZM49.136 20.0143L50.1283 21.7508L50.1283 21.7508L49.136 20.0143ZM43.116 18.8243L41.6732 20.2093L41.6874 20.2241L41.7018 20.2385L43.116 18.8243ZM42.766 10.9843L44.421 12.1073L44.4301 12.0939L44.4389 12.0803L42.766 10.9843ZM46.686 7.13427L47.8359 8.77066L47.8505 8.76039L47.865 8.74986L46.686 7.13427ZM52.916 4.05428L52.3051 2.14982L52.2945 2.15329L52.916 4.05428ZM71.116 5.38428L70.0066 7.04838L70.0243 7.06018L70.0423 7.0716L71.116 5.38428ZM76.786 12.4543L74.9252 13.1873L74.93 13.1995L74.9349 13.2115L76.786 12.4543ZM76.646 36.6743L74.7631 36.0001L74.7607 36.0068L74.7583 36.0136L76.646 36.6743ZM71.326 45.9843L69.8436 44.6417L69.8366 44.6495L69.8296 44.6573L71.326 45.9843ZM63.906 51.5843L64.7125 53.4144L64.7254 53.4088L64.7383 53.4029L63.906 51.5843ZM55.506 53.4043V51.4043C52.126 51.4043 49.2208 50.7556 46.7404 49.5154L45.846 51.3043L44.9516 53.0931C48.0712 54.6529 51.606 55.4043 55.506 55.4043V53.4043ZM45.846 51.3043L46.7641 49.5274C44.3611 48.2859 42.4516 46.3593 41.0382 43.6573L39.266 44.5843L37.4938 45.5113C39.2538 48.876 41.7309 51.4293 44.928 53.0811L45.846 51.3043ZM39.266 44.5843L41.0549 43.6899C39.6964 40.9729 38.956 37.3858 38.956 32.8243H36.956H34.956C34.956 37.7827 35.7556 42.0357 37.4772 45.4787L39.266 44.5843ZM36.956 32.8243H38.956C38.956 29.1899 39.4881 26.0556 40.505 23.3863L38.636 22.6743L36.767 21.9623C35.5439 25.173 34.956 28.8054 34.956 32.8243H36.956ZM38.636 22.6743L40.5087 23.3765C41.5705 20.545 42.8527 18.218 44.3312 16.3593L42.766 15.1143L41.2008 13.8692C39.4127 16.1172 37.9415 18.8302 36.7634 21.972L38.636 22.6743ZM42.766 15.1143L44.3278 16.3637C45.9121 14.3832 47.4249 13.001 48.8489 12.1308L47.806 10.4243L46.7631 8.71771C44.8271 9.90084 42.9799 11.6453 41.2043 13.8649L42.766 15.1143ZM47.806 10.4243L48.8619 12.1228C50.4937 11.1085 51.5247 10.8143 52.076 10.8143V8.81427V6.81427C50.3874 6.81427 48.5717 7.59341 46.7501 8.7257L47.806 10.4243ZM52.076 8.81427V10.8143C52.7014 10.8143 53.1625 10.8656 53.4878 10.9395C53.6474 10.9758 53.7596 11.0143 53.8344 11.0463C53.9088 11.0782 53.9369 11.0997 53.9366 11.0995L55.156 9.51427L56.3754 7.92903C55.2223 7.04198 53.6253 6.81427 52.076 6.81427V8.81427ZM55.156 9.51427L53.9366 11.0995C53.8898 11.0635 53.9133 11.0515 53.9574 11.1736C54.0078 11.3131 54.066 11.5817 54.066 12.0343H56.066H58.066C58.066 10.5665 57.7058 8.95241 56.3754 7.92903L55.156 9.51427ZM56.066 12.0343H54.066C54.066 12.7177 53.9222 13.3197 53.6472 13.8698L55.436 14.7643L57.2249 15.6587C57.7898 14.5288 58.066 13.3109 58.066 12.0343H56.066ZM55.436 14.7643L53.6264 13.9127C53.3638 14.4706 53.0042 14.9631 52.5351 15.3987L53.896 16.8643L55.2569 18.3299C56.0945 17.5521 56.7615 16.6446 57.2457 15.6159L55.436 14.7643ZM53.896 16.8643L52.579 15.3591C50.9275 16.8042 49.5691 18.4452 48.5195 20.282L50.256 21.2743L51.9925 22.2666C52.8096 20.8367 53.8778 19.5377 55.213 18.3694L53.896 16.8643ZM50.256 21.2743L48.5195 20.282C47.4817 22.0983 46.7341 24.0626 46.2725 26.1655L48.226 26.5943L50.1795 27.0231C50.5579 25.2993 51.1637 23.717 51.9925 22.2666L50.256 21.2743ZM48.226 26.5943L46.2725 26.1655C45.8176 28.238 45.596 30.4602 45.596 32.8243H47.596H49.596C49.596 30.7083 49.7945 28.7772 50.1795 27.0231L48.226 26.5943ZM47.596 32.8243H45.596C45.596 34.9324 45.9046 36.8954 46.5564 38.6878L48.436 38.0043L50.3156 37.3208C49.8474 36.0332 49.596 34.5428 49.596 32.8243H47.596ZM48.436 38.0043L46.5831 38.757C47.319 40.5686 48.4507 42.0671 49.986 43.1891L51.166 41.5743L52.346 39.9595C51.4546 39.3081 50.7663 38.4266 50.2889 37.2515L48.436 38.0043ZM51.166 41.5743L49.986 43.1891C51.609 44.3751 53.5633 44.9043 55.716 44.9043V42.9043V40.9043C54.2287 40.9043 53.1497 40.5468 52.346 39.9595L51.166 41.5743ZM55.716 42.9043V44.9043C58.2958 44.9043 60.685 43.9543 62.8454 42.226L61.596 40.6643L60.3466 39.1025C58.7736 40.3609 57.2429 40.9043 55.716 40.9043V42.9043ZM61.596 40.6643L62.8266 42.2409C65.0857 40.4777 66.8094 37.9607 68.0709 34.8322L66.216 34.0843L64.3611 33.3363C63.2893 35.9945 61.933 37.8642 60.3655 39.0876L61.596 40.6643ZM66.216 34.0843L68.0604 34.8577C69.4049 31.6517 70.036 27.8249 70.036 23.4443H68.036H66.036C66.036 27.4636 65.4538 30.7302 64.3716 33.3108L66.216 34.0843ZM68.036 23.4443H70.036C70.036 21.4131 69.7823 19.5272 69.245 17.8077L67.336 18.4043L65.4271 19.0008C65.823 20.268 66.036 21.7421 66.036 23.4443H68.036ZM67.336 18.4043L69.2655 17.878C68.7661 16.0468 67.8951 14.473 66.5778 13.2812L65.236 14.7643L63.8942 16.2473C64.5369 16.8288 65.0659 17.6818 65.4065 18.9305L67.336 18.4043ZM65.236 14.7643L66.5778 13.2812C65.1486 11.9881 63.3231 11.4343 61.316 11.4343V13.4343V15.4343C62.5756 15.4343 63.3634 15.7671 63.8942 16.2473L65.236 14.7643ZM61.316 13.4343V11.4343C59.4588 11.4343 57.7566 11.6912 56.2581 12.2676L56.976 14.1343L57.694 16.001C58.6221 15.644 59.8132 15.4343 61.316 15.4343V13.4343ZM56.976 14.1343L56.2581 12.2676C54.8248 12.8189 53.5395 13.5984 52.4181 14.6077L53.756 16.0943L55.0939 17.5809C55.8392 16.9102 56.7006 16.383 57.694 16.001L56.976 14.1343ZM53.756 16.0943L52.4607 14.5704C51.4833 15.4012 50.5104 16.3015 49.5418 17.2701L50.956 18.6843L52.3702 20.0985C53.2683 19.2004 54.1621 18.374 55.0513 17.6182L53.756 16.0943ZM50.956 18.6843L49.6046 17.21C49.1531 17.6238 48.6667 17.9789 48.1437 18.2778L49.136 20.0143L50.1283 21.7508C50.912 21.303 51.6389 20.7714 52.3075 20.1586L50.956 18.6843ZM49.136 20.0143L48.1437 18.2778C47.7692 18.4918 47.432 18.5743 47.106 18.5743V20.5743V22.5743C48.1801 22.5743 49.1962 22.2834 50.1283 21.7508L49.136 20.0143ZM47.106 20.5743V18.5743C46.2012 18.5743 45.365 18.2448 44.5302 17.4101L43.116 18.8243L41.7018 20.2385C43.2004 21.7371 45.0242 22.5743 47.106 22.5743V20.5743ZM43.116 18.8243L44.5588 17.4392C43.8114 16.6607 43.436 15.7402 43.436 14.5543H41.436H39.436C39.436 16.7284 40.1806 18.6545 41.6732 20.2093L43.116 18.8243ZM41.436 14.5543H43.436C43.436 14.029 43.6588 13.2305 44.421 12.1073L42.766 10.9843L41.1111 9.86127C40.0999 11.3514 39.436 12.9329 39.436 14.5543H41.436ZM42.766 10.9843L44.4389 12.0803C45.1519 10.9922 46.2563 9.88063 47.8359 8.77066L46.686 7.13427L45.5361 5.49789C43.6624 6.81459 42.1535 8.26972 41.0931 9.88822L42.766 10.9843ZM46.686 7.13427L47.865 8.74986C49.3927 7.63504 51.2728 6.69563 53.5375 5.95527L52.916 4.05428L52.2945 2.15329C49.7058 2.99959 47.4327 4.11351 45.5071 5.51869L46.686 7.13427ZM52.916 4.05428L53.5269 5.95871C55.7673 5.24007 58.3558 4.86428 61.316 4.86428V2.86428V0.864276C58.0228 0.864276 55.0114 1.28181 52.3052 2.14985L52.916 4.05428ZM61.316 2.86428V4.86428C65.0606 4.86428 67.9064 5.6482 70.0066 7.04838L71.116 5.38428L72.2254 3.72018C69.2857 1.76035 65.5981 0.864276 61.316 0.864276V2.86428ZM71.116 5.38428L70.0423 7.0716C72.2206 8.45778 73.8524 10.464 74.9252 13.1873L76.786 12.4543L78.6468 11.7212C77.293 8.28451 75.1448 5.57744 72.1898 3.69695L71.116 5.38428ZM76.786 12.4543L74.9349 13.2115C76.0735 15.9948 76.676 19.3886 76.676 23.4443H78.676H80.676C80.676 19.0067 80.0185 15.0737 78.6371 11.697L76.786 12.4543ZM78.676 23.4443H76.676C76.676 28.3107 76.022 32.4837 74.7631 36.0001L76.646 36.6743L78.529 37.3484C79.9767 33.3049 80.676 28.6579 80.676 23.4443H78.676ZM76.646 36.6743L74.7583 36.0136C73.5238 39.5408 71.8743 42.3995 69.8436 44.6417L71.326 45.9843L72.8084 47.3268C75.2577 44.6224 77.1549 41.2745 78.5337 37.335L76.646 36.6743ZM71.326 45.9843L69.8296 44.6573C67.8039 46.9416 65.5515 48.6318 63.0738 49.7657L63.906 51.5843L64.7383 53.4029C67.7672 52.0168 70.4614 49.9736 72.8224 47.3113L71.326 45.9843ZM63.906 51.5843L63.0995 49.7541C60.5856 50.8619 58.0593 51.4043 55.506 51.4043V53.4043V55.4043C58.6461 55.4043 61.7198 54.7333 64.7125 53.4144L63.906 51.5843ZM98.923 51.3043L98.0049 53.0811L98.0167 53.0872L98.0285 53.0931L98.923 51.3043ZM92.343 44.5843L90.5541 45.4787L90.5623 45.4951L90.5708 45.5113L92.343 44.5843ZM91.713 22.6743L93.582 23.3863L93.5856 23.3765L91.713 22.6743ZM95.843 15.1143L94.2812 13.8649L94.2778 13.8692L95.843 15.1143ZM100.883 10.4243L101.926 12.1308L101.932 12.1269L101.939 12.1228L100.883 10.4243ZM108.233 9.51427L109.452 7.92903L109.452 7.92903L108.233 9.51427ZM108.513 14.7643L106.724 13.8698L106.713 13.8911L106.703 13.9127L108.513 14.7643ZM106.973 16.8643L108.29 18.3694L108.312 18.35L108.334 18.3299L106.973 16.8643ZM103.333 21.2743L101.596 20.282L101.596 20.282L103.333 21.2743ZM101.303 26.5943L103.256 27.0231L103.256 27.0231L101.303 26.5943ZM101.513 38.0043L99.6334 38.6878L99.6461 38.7226L99.66 38.757L101.513 38.0043ZM104.243 41.5743L105.423 39.9595L105.423 39.9595L104.243 41.5743ZM114.673 40.6643L113.442 39.0876L113.433 39.095L113.424 39.1025L114.673 40.6643ZM119.293 34.0843L117.449 33.3108L117.443 33.3235L117.438 33.3363L119.293 34.0843ZM120.413 18.4043L118.483 18.9305L118.493 18.9659L118.504 19.0008L120.413 18.4043ZM110.053 14.1343L110.771 16.001L110.771 16.001L110.053 14.1343ZM106.833 16.0943L108.128 17.6182L108.15 17.5998L108.171 17.5809L106.833 16.0943ZM104.033 18.6843L105.384 20.1586L105.416 20.1292L105.447 20.0985L104.033 18.6843ZM102.213 20.0143L103.205 21.7508L103.205 21.7508L102.213 20.0143ZM96.193 18.8243L94.7502 20.2093L94.7643 20.2241L94.7788 20.2385L96.193 18.8243ZM95.843 10.9843L97.4979 12.1073L97.507 12.0939L97.5159 12.0803L95.843 10.9843ZM99.763 7.13427L100.913 8.77066L100.927 8.76039L100.942 8.74986L99.763 7.13427ZM105.993 4.05428L105.382 2.14982L105.371 2.15329L105.993 4.05428ZM124.193 5.38428L123.084 7.04838L123.101 7.06018L123.119 7.0716L124.193 5.38428ZM129.863 12.4543L128.002 13.1873L128.007 13.1995L128.012 13.2115L129.863 12.4543ZM129.723 36.6743L127.84 36.0001L127.838 36.0068L127.835 36.0136L129.723 36.6743ZM124.403 45.9843L122.921 44.6417L122.914 44.6495L122.907 44.6573L124.403 45.9843ZM116.983 51.5843L117.789 53.4144L117.802 53.4088L117.815 53.4029L116.983 51.5843ZM108.583 53.4043V51.4043C105.203 51.4043 102.298 50.7556 99.8174 49.5154L98.923 51.3043L98.0285 53.0931C101.148 54.6529 104.683 55.4043 108.583 55.4043V53.4043ZM98.923 51.3043L99.841 49.5274C97.4381 48.2859 95.5285 46.3593 94.1152 43.6573L92.343 44.5843L90.5708 45.5113C92.3308 48.876 94.8079 51.4293 98.0049 53.0811L98.923 51.3043ZM92.343 44.5843L94.1318 43.6899C92.7733 40.9729 92.033 37.3858 92.033 32.8243H90.033H88.033C88.033 37.7827 88.8326 42.0357 90.5541 45.4787L92.343 44.5843ZM90.033 32.8243H92.033C92.033 29.1899 92.5651 26.0556 93.5819 23.3863L91.713 22.6743L89.844 21.9623C88.6209 25.173 88.033 28.8054 88.033 32.8243H90.033ZM91.713 22.6743L93.5856 23.3765C94.6474 20.545 95.9297 18.218 97.4082 16.3593L95.843 15.1143L94.2778 13.8692C92.4896 16.1172 91.0185 18.8302 89.8403 21.972L91.713 22.6743ZM95.843 15.1143L97.4047 16.3637C98.9891 14.3832 100.502 13.001 101.926 12.1308L100.883 10.4243L99.8401 8.71771C97.904 9.90084 96.0569 11.6453 94.2812 13.8649L95.843 15.1143ZM100.883 10.4243L101.939 12.1228C103.571 11.1085 104.602 10.8143 105.153 10.8143V8.81427V6.81427C103.464 6.81427 101.649 7.59341 99.8271 8.7257L100.883 10.4243ZM105.153 8.81427V10.8143C105.778 10.8143 106.239 10.8656 106.565 10.9395C106.724 10.9758 106.837 11.0143 106.911 11.0463C106.986 11.0782 107.014 11.0997 107.014 11.0995L108.233 9.51427L109.452 7.92903C108.299 7.04198 106.702 6.81427 105.153 6.81427V8.81427ZM108.233 9.51427L107.014 11.0995C106.967 11.0635 106.99 11.0515 107.034 11.1736C107.085 11.3131 107.143 11.5817 107.143 12.0343H109.143H111.143C111.143 10.5665 110.783 8.95241 109.452 7.92903L108.233 9.51427ZM109.143 12.0343H107.143C107.143 12.7177 106.999 13.3197 106.724 13.8698L108.513 14.7643L110.302 15.6587C110.867 14.5288 111.143 13.3109 111.143 12.0343H109.143ZM108.513 14.7643L106.703 13.9127C106.441 14.4706 106.081 14.9631 105.612 15.3987L106.973 16.8643L108.334 18.3299C109.171 17.5521 109.838 16.6446 110.323 15.6159L108.513 14.7643ZM106.973 16.8643L105.656 15.3591C104.004 16.8042 102.646 18.4452 101.596 20.282L103.333 21.2743L105.069 22.2666C105.887 20.8367 106.955 19.5377 108.29 18.3694L106.973 16.8643ZM103.333 21.2743L101.596 20.282C100.559 22.0983 99.8111 24.0626 99.3495 26.1655L101.303 26.5943L103.256 27.0231C103.635 25.2993 104.241 23.717 105.069 22.2666L103.333 21.2743ZM101.303 26.5943L99.3495 26.1655C98.8945 28.238 98.673 30.4602 98.673 32.8243H100.673H102.673C102.673 30.7083 102.871 28.7772 103.256 27.0231L101.303 26.5943ZM100.673 32.8243H98.673C98.673 34.9324 98.9816 36.8954 99.6334 38.6878L101.513 38.0043L103.393 37.3208C102.924 36.0332 102.673 34.5428 102.673 32.8243H100.673ZM101.513 38.0043L99.66 38.757C100.396 40.5686 101.528 42.0671 103.063 43.1891L104.243 41.5743L105.423 39.9595C104.532 39.3081 103.843 38.4266 103.366 37.2515L101.513 38.0043ZM104.243 41.5743L103.063 43.1891C104.686 44.3751 106.64 44.9043 108.793 44.9043V42.9043V40.9043C107.306 40.9043 106.227 40.5468 105.423 39.9595L104.243 41.5743ZM108.793 42.9043V44.9043C111.373 44.9043 113.762 43.9543 115.922 42.226L114.673 40.6643L113.424 39.1025C111.851 40.3609 110.32 40.9043 108.793 40.9043V42.9043ZM114.673 40.6643L115.904 42.2409C118.163 40.4777 119.886 37.9607 121.148 34.8322L119.293 34.0843L117.438 33.3363C116.366 35.9945 115.01 37.8642 113.442 39.0876L114.673 40.6643ZM119.293 34.0843L121.137 34.8577C122.482 31.6517 123.113 27.8249 123.113 23.4443H121.113H119.113C119.113 27.4636 118.531 30.7302 117.449 33.3108L119.293 34.0843ZM121.113 23.4443H123.113C123.113 21.4131 122.859 19.5272 122.322 17.8077L120.413 18.4043L118.504 19.0008C118.9 20.268 119.113 21.7421 119.113 23.4443H121.113ZM120.413 18.4043L122.342 17.878C121.843 16.0468 120.972 14.473 119.655 13.2812L118.313 14.7643L116.971 16.2473C117.614 16.8288 118.143 17.6818 118.483 18.9305L120.413 18.4043ZM118.313 14.7643L119.655 13.2812C118.226 11.9881 116.4 11.4343 114.393 11.4343V13.4343V15.4343C115.653 15.4343 116.44 15.7671 116.971 16.2473L118.313 14.7643ZM114.393 13.4343V11.4343C112.536 11.4343 110.834 11.6912 109.335 12.2676L110.053 14.1343L110.771 16.001C111.699 15.644 112.89 15.4343 114.393 15.4343V13.4343ZM110.053 14.1343L109.335 12.2676C107.902 12.8189 106.616 13.5984 105.495 14.6077L106.833 16.0943L108.171 17.5809C108.916 16.9102 109.778 16.383 110.771 16.001L110.053 14.1343ZM106.833 16.0943L105.538 14.5704C104.56 15.4012 103.587 16.3015 102.619 17.2701L104.033 18.6843L105.447 20.0985C106.345 19.2004 107.239 18.374 108.128 17.6182L106.833 16.0943ZM104.033 18.6843L102.682 17.21C102.23 17.6238 101.744 17.9789 101.221 18.2778L102.213 20.0143L103.205 21.7508C103.989 21.303 104.716 20.7714 105.384 20.1586L104.033 18.6843ZM102.213 20.0143L101.221 18.2778C100.846 18.4918 100.509 18.5743 100.183 18.5743V20.5743V22.5743C101.257 22.5743 102.273 22.2834 103.205 21.7508L102.213 20.0143ZM100.183 20.5743V18.5743C99.2781 18.5743 98.4419 18.2448 97.6072 17.4101L96.193 18.8243L94.7788 20.2385C96.2773 21.7371 98.1011 22.5743 100.183 22.5743V20.5743ZM96.193 18.8243L97.6357 17.4392C96.8884 16.6607 96.513 15.7402 96.513 14.5543H94.513H92.513C92.513 16.7284 93.2575 18.6545 94.7502 20.2093L96.193 18.8243ZM94.513 14.5543H96.513C96.513 14.029 96.7358 13.2305 97.4979 12.1073L95.843 10.9843L94.188 9.86127C93.1768 11.3514 92.513 12.9329 92.513 14.5543H94.513ZM95.843 10.9843L97.5159 12.0803C98.2288 10.9922 99.3333 9.88063 100.913 8.77066L99.763 7.13427L98.6131 5.49789C96.7393 6.81459 95.2304 8.26972 94.17 9.88822L95.843 10.9843ZM99.763 7.13427L100.942 8.74986C102.47 7.63504 104.35 6.69563 106.614 5.95527L105.993 4.05428L105.371 2.15329C102.783 2.99959 100.51 4.11351 98.584 5.51869L99.763 7.13427ZM105.993 4.05428L106.604 5.95871C108.844 5.24007 111.433 4.86428 114.393 4.86428V2.86428V0.864276C111.1 0.864276 108.088 1.28181 105.382 2.14985L105.993 4.05428ZM114.393 2.86428V4.86428C118.138 4.86428 120.983 5.6482 123.084 7.04838L124.193 5.38428L125.302 3.72018C122.363 1.76035 118.675 0.864276 114.393 0.864276V2.86428ZM124.193 5.38428L123.119 7.0716C125.298 8.45778 126.929 10.464 128.002 13.1873L129.863 12.4543L131.724 11.7212C130.37 8.28451 128.222 5.57744 125.267 3.69695L124.193 5.38428ZM129.863 12.4543L128.012 13.2115C129.15 15.9948 129.753 19.3886 129.753 23.4443H131.753H133.753C133.753 19.0067 133.095 15.0737 131.714 11.697L129.863 12.4543ZM131.753 23.4443H129.753C129.753 28.3107 129.099 32.4837 127.84 36.0001L129.723 36.6743L131.606 37.3484C133.054 33.3049 133.753 28.6579 133.753 23.4443H131.753ZM129.723 36.6743L127.835 36.0136C126.601 39.5408 124.951 42.3995 122.921 44.6417L124.403 45.9843L125.885 47.3268C128.335 44.6224 130.232 41.2745 131.611 37.335L129.723 36.6743ZM124.403 45.9843L122.907 44.6573C120.881 46.9416 118.628 48.6318 116.151 49.7657L116.983 51.5843L117.815 53.4029C120.844 52.0168 123.538 49.9736 125.899 47.3113L124.403 45.9843ZM116.983 51.5843L116.176 49.7541C113.663 50.8619 111.136 51.4043 108.583 51.4043V53.4043V55.4043C111.723 55.4043 114.797 54.7333 117.789 53.4144L116.983 51.5843ZM148.287 36.8143L148.404 38.8108L148.411 38.8104L148.287 36.8143ZM144.647 35.4143L143.072 36.6469L143.085 36.664L143.099 36.6808L144.647 35.4143ZM144.367 28.3443L142.739 27.1818L142.734 27.1896L142.728 27.1974L144.367 28.3443ZM148.847 26.1043L148.43 24.1482L148.419 24.1505L148.409 24.1528L148.847 26.1043ZM157.737 24.6343L157.5 22.6484L157.496 22.6488L157.737 24.6343ZM167.047 23.7943L166.926 21.7979L166.926 21.7979L167.047 23.7943ZM181.397 25.0543L180.188 26.6477L180.188 26.6477L181.397 25.0543ZM182.517 31.8443L181.005 30.5344L180.998 30.5427L182.517 31.8443ZM179.087 32.8243V30.8243H179.077L179.067 30.8244L179.087 32.8243ZM166.977 33.4543L166.75 31.4672L166.75 31.4672L166.977 33.4543ZM158.717 34.7843L159.125 36.7422L159.144 36.7382L159.163 36.7337L158.717 34.7843ZM152.907 36.1143L153.365 38.0611L153.385 38.0564L153.405 38.0513L152.907 36.1143ZM160.117 49.2743L158.702 50.6885L158.736 50.7221L158.771 50.7542L160.117 49.2743ZM158.437 44.7243L160.432 44.5882L160.432 44.5807L160.431 44.5732L158.437 44.7243ZM158.157 36.1843L160.156 36.22L160.156 36.2194L158.157 36.1843ZM158.437 28.6243L156.443 28.4709L156.441 28.4888L156.44 28.5068L158.437 28.6243ZM158.857 21.5543L156.86 21.4345L156.859 21.4536L156.858 21.4727L158.857 21.5543ZM158.927 14.4143L156.928 14.4809L156.928 14.4911L158.927 14.4143ZM159.697 11.0543L161.361 12.1637L161.374 12.1431L161.388 12.1223L159.697 11.0543ZM167.467 11.7543L165.952 13.0602L165.963 13.0733L165.975 13.0863L167.467 11.7543ZM169.077 25.2643L171.075 25.337L171.075 25.337L169.077 25.2643ZM168.727 32.9643L166.73 32.8553L166.729 32.8735L166.728 32.8916L168.727 32.9643ZM168.447 40.1043L170.445 40.1912L170.445 40.1893L168.447 40.1043ZM166.977 49.3443L165.562 47.9301L165.543 47.9492L165.525 47.9688L166.977 49.3443ZM148.287 36.8143L148.169 34.8177C147.079 34.8819 146.545 34.5765 146.195 34.1478L144.647 35.4143L143.099 36.6808C144.428 38.3054 146.321 38.9334 148.404 38.8108L148.287 36.8143ZM144.647 35.4143L146.222 34.1817C145.665 33.4704 145.387 32.6706 145.387 31.7043H143.387H141.387C141.387 33.538 141.948 35.2115 143.072 36.6469L144.647 35.4143ZM143.387 31.7043H145.387C145.387 30.7456 145.62 30.0407 146.005 29.4912L144.367 28.3443L142.728 27.1974C141.806 28.5146 141.387 30.0496 141.387 31.7043H143.387ZM144.367 28.3443L145.994 29.5068C146.238 29.1646 147.085 28.5496 149.285 28.0557L148.847 26.1043L148.409 24.1528C146.035 24.6856 143.895 25.5639 142.739 27.1818L144.367 28.3443ZM148.847 26.1043L149.264 28.0603C152.048 27.4669 154.953 26.9864 157.977 26.6197L157.737 24.6343L157.496 22.6488C154.361 23.0288 151.338 23.5283 148.43 24.1482L148.847 26.1043ZM157.737 24.6343L157.974 26.6202C161.063 26.2514 164.127 25.9749 167.168 25.7906L167.047 23.7943L166.926 21.7979C163.806 21.987 160.664 22.2705 157.5 22.6484L157.737 24.6343ZM167.047 23.7943L167.168 25.7906C170.212 25.6061 173.088 25.5143 175.797 25.5143V23.5143V21.5143C172.998 21.5143 170.041 21.6091 166.926 21.7979L167.047 23.7943ZM175.797 23.5143V25.5143C177.911 25.5143 179.298 25.9722 180.188 26.6477L181.397 25.0543L182.605 23.4609C180.789 22.083 178.442 21.5143 175.797 21.5143V23.5143ZM181.397 25.0543L180.188 26.6477C181.033 27.2889 181.427 28.0711 181.427 29.1843H183.427H185.427C185.427 26.8441 184.467 24.873 182.605 23.4609L181.397 25.0543ZM183.427 29.1843H181.427C181.427 29.8573 181.248 30.2548 181.005 30.5344L182.517 31.8443L184.028 33.1541C184.999 32.0337 185.427 30.6579 185.427 29.1843H183.427ZM182.517 31.8443L180.998 30.5427C181.053 30.4781 181.024 30.5608 180.69 30.6562C180.357 30.7512 179.84 30.8243 179.087 30.8243V32.8243V34.8243C180.876 34.8243 182.853 34.5252 184.035 33.1459L182.517 31.8443ZM179.087 32.8243L179.067 30.8244C174.22 30.8714 170.109 31.0833 166.75 31.4672L166.977 33.4543L167.204 35.4413C170.378 35.0786 174.34 34.8705 179.106 34.8242L179.087 32.8243ZM166.977 33.4543L166.75 31.4672C163.438 31.8457 160.606 32.2995 158.27 32.8348L158.717 34.7843L159.163 36.7337C161.307 36.2424 163.982 35.8095 167.204 35.4413L166.977 33.4543ZM158.717 34.7843L158.309 32.8263C156.048 33.2972 154.08 33.7475 152.409 34.1773L152.907 36.1143L153.405 38.0513C155 37.6411 156.905 37.2047 159.125 36.7422L158.717 34.7843ZM152.907 36.1143L152.449 34.1674C150.962 34.5173 149.533 34.7324 148.162 34.8182L148.287 36.8143L148.411 38.8104C150.026 38.7094 151.678 38.4579 153.365 38.0611L152.907 36.1143ZM163.617 50.6743V48.6743C162.84 48.6743 162.145 48.4157 161.462 47.7944L160.117 49.2743L158.771 50.7542C160.141 51.9995 161.78 52.6743 163.617 52.6743V50.6743ZM160.117 49.2743L161.531 47.8601C161.025 47.3545 160.555 46.3868 160.432 44.5882L158.437 44.7243L156.441 44.8603C156.599 47.1684 157.248 49.234 158.702 50.6885L160.117 49.2743ZM158.437 44.7243L160.431 44.5732C160.201 41.5445 160.111 38.761 160.156 36.22L158.157 36.1843L156.157 36.1486C156.109 38.8342 156.205 41.744 156.442 44.8754L158.437 44.7243ZM158.157 36.1843L160.156 36.2194C160.203 33.5837 160.295 31.0914 160.433 28.7417L158.437 28.6243L156.44 28.5068C156.298 30.9172 156.204 33.4648 156.157 36.1492L158.157 36.1843ZM158.437 28.6243L160.431 28.7777C160.619 26.3286 160.761 23.9479 160.855 21.6358L158.857 21.5543L156.858 21.4727C156.766 23.734 156.627 26.0666 156.443 28.4709L158.437 28.6243ZM158.857 21.5543L160.853 21.6741C160.997 19.2728 161.021 16.8271 160.925 14.3374L158.927 14.4143L156.928 14.4911C157.019 16.8548 156.996 19.1691 156.86 21.4345L158.857 21.5543ZM158.927 14.4143L160.926 14.3476C160.888 13.2075 161.107 12.5448 161.361 12.1637L159.697 11.0543L158.033 9.94487C157.167 11.2438 156.872 12.821 156.928 14.4809L158.927 14.4143ZM159.697 11.0543L161.388 12.1223C161.439 12.0413 161.652 11.7243 162.777 11.7243V9.72427V7.72427C160.915 7.72427 159.075 8.29394 158.006 9.98629L159.697 11.0543ZM162.777 9.72427V11.7243C164.218 11.7243 165.205 12.1935 165.952 13.0602L167.467 11.7543L168.981 10.4484C167.395 8.60838 165.255 7.72427 162.777 7.72427V9.72427ZM167.467 11.7543L165.975 13.0863C166.647 13.839 167.217 15.3934 167.217 18.2643H169.217H171.217C171.217 15.0684 170.62 12.2829 168.959 10.4222L167.467 11.7543ZM169.217 18.2643H167.217C167.217 20.3354 167.171 22.644 167.078 25.1916L169.077 25.2643L171.075 25.337C171.169 22.7512 171.217 20.3931 171.217 18.2643H169.217ZM169.077 25.2643L167.078 25.1916C166.985 27.7462 166.869 30.3007 166.73 32.8553L168.727 32.9643L170.724 33.0732C170.864 30.4945 170.982 27.9157 171.075 25.337L169.077 25.2643ZM168.727 32.9643L166.728 32.8916C166.635 35.4548 166.542 37.8306 166.448 40.0192L168.447 40.1043L170.445 40.1893C170.538 37.9912 170.632 35.6071 170.725 33.037L168.727 32.9643ZM168.447 40.1043L166.449 40.0174C166.355 42.1772 166.307 43.9362 166.307 45.2843H168.307H170.307C170.307 44.019 170.352 42.3247 170.445 40.1912L168.447 40.1043ZM168.307 45.2843H166.307C166.307 46.8136 165.933 47.5594 165.562 47.9301L166.977 49.3443L168.391 50.7585C169.794 49.3558 170.307 47.395 170.307 45.2843H168.307ZM166.977 49.3443L165.525 47.9688C165.119 48.3971 164.555 48.6743 163.617 48.6743V50.6743V52.6743C165.478 52.6743 167.154 52.0647 168.429 50.7198L166.977 49.3443Z" fill="white" mask="url(#path-1-outside-1_504_9264)"/>
<path d="M22.6197 52.0043L21.0652 50.7459L21.0579 50.7549L22.6197 52.0043ZM14.7797 51.7243L13.3054 53.0757L13.3204 53.0921L13.3357 53.1081L14.7797 51.7243ZM13.5197 35.6243L11.5233 35.504L11.5226 35.5154L11.5221 35.5268L13.5197 35.6243ZM14.4997 24.2143L16.4871 24.4379L16.4875 24.4351L14.4997 24.2143ZM15.8997 13.4343L17.2095 11.9229L14.4635 9.54297L13.922 13.1363L15.8997 13.4343ZM17.9997 15.2543L19.3013 16.7728L21.0631 15.2626L19.3095 13.7429L17.9997 15.2543ZM14.9197 17.3543L15.8448 19.1274L15.8448 19.1274L14.9197 17.3543ZM11.6997 18.6143L11.1948 16.679L11.1948 16.679L11.6997 18.6143ZM3.85968 17.2843L2.33291 18.5762L2.35972 18.6078L2.38782 18.6384L3.85968 17.2843ZM3.36968 10.6343L4.82876 12.0022L4.8494 11.9801L4.86936 11.9575L3.36968 10.6343ZM6.72968 9.16427L6.97035 11.1498L6.97775 11.1488L6.72968 9.16427ZM11.7697 7.55427L12.7502 9.29742L12.7706 9.28594L12.7908 9.27398L11.7697 7.55427ZM16.0397 4.54427L17.3148 6.08506L17.3281 6.07404L17.3413 6.06279L16.0397 4.54427ZM18.1397 3.21428L18.9413 5.04659L18.9665 5.03559L18.9913 5.02391L18.1397 3.21428ZM24.5797 3.84428L23.3909 5.45263L23.414 5.46969L23.4376 5.48609L24.5797 3.84428ZM26.8897 6.85427L25.0142 7.5489L25.0254 7.57907L25.0375 7.60887L26.8897 6.85427ZM27.0297 10.9143L25.109 10.3567L25.0995 10.3894L25.0911 10.4224L27.0297 10.9143ZM25.1397 20.8543L23.1572 20.5899L23.1555 20.603L23.1539 20.616L25.1397 20.8543ZM24.2297 31.2143L22.2327 31.1049L22.2327 31.1049L24.2297 31.2143ZM23.8797 40.5943L25.8794 40.6271L25.8794 40.6271L23.8797 40.5943ZM23.8097 47.5243H21.8097C21.8097 49.3266 21.4433 50.2789 21.0652 50.7459L22.6197 52.0043L24.1742 53.2627C25.3828 51.7697 25.8097 49.7352 25.8097 47.5243H23.8097ZM22.6197 52.0043L21.0579 50.7549C20.7955 51.0829 20.3123 51.4043 19.1897 51.4043V53.4043V55.4043C21.1471 55.4043 22.9505 54.7923 24.1814 53.2537L22.6197 52.0043ZM19.1897 53.4043V51.4043C17.7489 51.4043 16.8445 50.9883 16.2237 50.3405L14.7797 51.7243L13.3357 53.1081C14.8616 54.7003 16.8972 55.4043 19.1897 55.4043V53.4043ZM14.7797 51.7243L16.254 50.3728C15.6829 49.7498 15.2397 48.6768 15.2397 46.8243H13.2397H11.2397C11.2397 49.2651 11.8232 51.4588 13.3054 53.0757L14.7797 51.7243ZM13.2397 46.8243H15.2397C15.2397 43.2184 15.3321 39.5176 15.5173 35.7217L13.5197 35.6243L11.5221 35.5268C11.3339 39.3843 11.2397 43.1501 11.2397 46.8243H13.2397ZM13.5197 35.6243L15.5161 35.7445C15.7474 31.9046 16.0711 28.1357 16.4871 24.4379L14.4997 24.2143L12.5122 23.9907C12.0882 27.7595 11.7586 31.5973 11.5233 35.504L13.5197 35.6243ZM14.4997 24.2143L16.4875 24.4351C16.9049 20.6783 17.3683 17.1108 17.8774 13.7323L15.8997 13.4343L13.922 13.1363C13.4044 16.5711 12.9345 20.1902 12.5119 23.9934L14.4997 24.2143ZM15.8997 13.4343L14.5898 14.9457L16.6898 16.7657L17.9997 15.2543L19.3095 13.7429L17.2095 11.9229L15.8997 13.4343ZM17.9997 15.2543L16.6981 13.7358C15.8259 14.4833 14.9246 15.0959 13.9946 15.5811L14.9197 17.3543L15.8448 19.1274C17.0615 18.4927 18.2135 17.7052 19.3013 16.7728L17.9997 15.2543ZM14.9197 17.3543L13.9946 15.5811C13.0427 16.0777 12.1098 16.4403 11.1948 16.679L11.6997 18.6143L12.2045 20.5495C13.4362 20.2282 14.65 19.7508 15.8448 19.1274L14.9197 17.3543ZM11.6997 18.6143L11.1948 16.679C10.2651 16.9216 9.40865 17.0343 8.61968 17.0343V19.0343V21.0343C9.79072 21.0343 10.9876 20.867 12.2045 20.5495L11.6997 18.6143ZM8.61968 19.0343V17.0343C6.88847 17.0343 5.91397 16.5632 5.33155 15.9302L3.85968 17.2843L2.38782 18.6384C3.95207 20.3387 6.1509 21.0343 8.61968 21.0343V19.0343ZM3.85968 17.2843L5.38646 15.9924C4.63302 15.102 4.31968 14.2201 4.31968 13.2943H2.31968H0.319685C0.319685 15.2617 1.03302 17.0399 2.33291 18.5762L3.85968 17.2843ZM2.31968 13.2943H4.31968C4.31968 12.774 4.47749 12.3768 4.82876 12.0022L3.36968 10.6343L1.91061 9.26639C0.861881 10.385 0.319685 11.7613 0.319685 13.2943H2.31968ZM3.36968 10.6343L4.86936 11.9575C5.12237 11.6708 5.69459 11.3044 6.97035 11.1497L6.72968 9.16427L6.48902 7.17881C4.68478 7.3975 3.017 8.01111 1.87001 9.31103L3.36968 10.6343ZM6.72968 9.16427L6.97775 11.1488C9.07661 10.8865 11.0095 10.2766 12.7502 9.29742L11.7697 7.55427L10.7892 5.81112C9.54323 6.51196 8.1161 6.97541 6.48162 7.17972L6.72968 9.16427ZM11.7697 7.55427L12.7908 9.27398C14.3743 8.33375 15.8825 7.27044 17.3148 6.08506L16.0397 4.54427L14.7645 3.00349C13.4902 4.05811 12.1517 5.00146 10.7486 5.83456L11.7697 7.55427ZM16.0397 4.54427L17.3413 6.06279C17.8528 5.62433 18.3858 5.28964 18.9413 5.04659L18.1397 3.21428L17.3381 1.38196C16.4003 1.79224 15.5332 2.34421 14.7381 3.02576L16.0397 4.54427ZM18.1397 3.21428L18.9913 5.02391C19.4884 4.78999 20.0792 4.65427 20.7997 4.65427V2.65427V0.654274C19.5602 0.654274 18.3777 0.891888 17.2881 1.40464L18.1397 3.21428ZM20.7997 2.65427V4.65427C21.8564 4.65427 22.6911 4.93535 23.3909 5.45263L24.5797 3.84428L25.7685 2.23592C24.3216 1.16653 22.6363 0.654274 20.7997 0.654274V2.65427ZM24.5797 3.84428L23.4376 5.48609C24.1657 5.99259 24.6853 6.66085 25.0142 7.5489L26.8897 6.85427L28.7652 6.15965C28.1608 4.5277 27.1404 3.1893 25.7218 2.20246L24.5797 3.84428ZM26.8897 6.85427L25.0375 7.60887C25.3625 8.40658 25.4177 9.29344 25.109 10.3567L27.0297 10.9143L28.9504 11.4719C29.4817 9.64178 29.4435 7.82196 28.7419 6.09968L26.8897 6.85427ZM27.0297 10.9143L25.0911 10.4224C24.2771 13.6306 23.6332 17.0204 23.1572 20.5899L25.1397 20.8543L27.1221 21.1186C27.5795 17.6881 28.1956 14.4512 28.9683 11.4062L27.0297 10.9143ZM25.1397 20.8543L23.1539 20.616C22.729 24.1574 22.4218 27.6537 22.2327 31.1049L24.2297 31.2143L26.2267 31.3237C26.4109 27.9615 26.7104 24.5512 27.1254 21.0926L25.1397 20.8543ZM24.2297 31.2143L22.2327 31.1049C22.0449 34.5322 21.9271 37.6849 21.88 40.5615L23.8797 40.5943L25.8794 40.6271C25.9256 37.8104 26.0412 34.7097 26.2267 31.3237L24.2297 31.2143ZM23.8797 40.5943L21.88 40.5615C21.8332 43.4134 21.8097 45.7355 21.8097 47.5243H23.8097H25.8097C25.8097 45.7664 25.8328 43.4685 25.8794 40.6271L23.8797 40.5943ZM45.846 51.3043L44.928 53.0811L44.9397 53.0872L44.9516 53.0931L45.846 51.3043ZM39.266 44.5843L37.4772 45.4787L37.4853 45.4951L37.4938 45.5113L39.266 44.5843ZM38.636 22.6743L40.505 23.3863L40.5087 23.3765L38.636 22.6743ZM42.766 15.1143L41.2043 13.8649L41.2008 13.8692L42.766 15.1143ZM47.806 10.4243L48.8489 12.1308L48.8554 12.1269L48.8619 12.1228L47.806 10.4243ZM55.156 9.51427L56.3754 7.92903L56.3754 7.92903L55.156 9.51427ZM55.436 14.7643L53.6472 13.8698L53.6365 13.8911L53.6264 13.9127L55.436 14.7643ZM53.896 16.8643L55.213 18.3694L55.2353 18.35L55.2569 18.3299L53.896 16.8643ZM50.256 21.2743L48.5195 20.282L48.5195 20.282L50.256 21.2743ZM48.226 26.5943L50.1795 27.0231L50.1795 27.0231L48.226 26.5943ZM48.436 38.0043L46.5564 38.6878L46.5691 38.7226L46.5831 38.757L48.436 38.0043ZM51.166 41.5743L52.346 39.9595L52.346 39.9595L51.166 41.5743ZM61.596 40.6643L60.3655 39.0876L60.356 39.095L60.3466 39.1025L61.596 40.6643ZM66.216 34.0843L64.3716 33.3108L64.3663 33.3235L64.3611 33.3363L66.216 34.0843ZM67.336 18.4043L65.4065 18.9305L65.4161 18.9659L65.4271 19.0008L67.336 18.4043ZM56.976 14.1343L57.694 16.001L57.694 16.001L56.976 14.1343ZM53.756 16.0943L55.0513 17.6182L55.0729 17.5998L55.0939 17.5809L53.756 16.0943ZM50.956 18.6843L52.3075 20.1586L52.3395 20.1292L52.3702 20.0985L50.956 18.6843ZM49.136 20.0143L50.1283 21.7508L50.1283 21.7508L49.136 20.0143ZM43.116 18.8243L41.6732 20.2093L41.6874 20.2241L41.7018 20.2385L43.116 18.8243ZM42.766 10.9843L44.421 12.1073L44.4301 12.0939L44.4389 12.0803L42.766 10.9843ZM46.686 7.13427L47.8359 8.77066L47.8505 8.76039L47.865 8.74986L46.686 7.13427ZM52.916 4.05428L52.3051 2.14982L52.2945 2.15329L52.916 4.05428ZM71.116 5.38428L70.0066 7.04838L70.0243 7.06018L70.0423 7.0716L71.116 5.38428ZM76.786 12.4543L74.9252 13.1873L74.93 13.1995L74.9349 13.2115L76.786 12.4543ZM76.646 36.6743L74.7631 36.0001L74.7607 36.0068L74.7583 36.0136L76.646 36.6743ZM71.326 45.9843L69.8436 44.6417L69.8366 44.6495L69.8296 44.6573L71.326 45.9843ZM63.906 51.5843L64.7125 53.4144L64.7254 53.4088L64.7383 53.4029L63.906 51.5843ZM55.506 53.4043V51.4043C52.126 51.4043 49.2208 50.7556 46.7404 49.5154L45.846 51.3043L44.9516 53.0931C48.0712 54.6529 51.606 55.4043 55.506 55.4043V53.4043ZM45.846 51.3043L46.7641 49.5274C44.3611 48.2859 42.4516 46.3593 41.0382 43.6573L39.266 44.5843L37.4938 45.5113C39.2538 48.876 41.7309 51.4293 44.928 53.0811L45.846 51.3043ZM39.266 44.5843L41.0549 43.6899C39.6964 40.9729 38.956 37.3858 38.956 32.8243H36.956H34.956C34.956 37.7827 35.7556 42.0357 37.4772 45.4787L39.266 44.5843ZM36.956 32.8243H38.956C38.956 29.1899 39.4881 26.0556 40.505 23.3863L38.636 22.6743L36.767 21.9623C35.5439 25.173 34.956 28.8054 34.956 32.8243H36.956ZM38.636 22.6743L40.5087 23.3765C41.5705 20.545 42.8527 18.218 44.3312 16.3593L42.766 15.1143L41.2008 13.8692C39.4127 16.1172 37.9415 18.8302 36.7634 21.972L38.636 22.6743ZM42.766 15.1143L44.3278 16.3637C45.9121 14.3832 47.4249 13.001 48.8489 12.1308L47.806 10.4243L46.7631 8.71771C44.8271 9.90084 42.9799 11.6453 41.2043 13.8649L42.766 15.1143ZM47.806 10.4243L48.8619 12.1228C50.4937 11.1085 51.5247 10.8143 52.076 10.8143V8.81427V6.81427C50.3874 6.81427 48.5717 7.59341 46.7501 8.7257L47.806 10.4243ZM52.076 8.81427V10.8143C52.7014 10.8143 53.1625 10.8656 53.4878 10.9395C53.6474 10.9758 53.7596 11.0143 53.8344 11.0463C53.9088 11.0782 53.9369 11.0997 53.9366 11.0995L55.156 9.51427L56.3754 7.92903C55.2223 7.04198 53.6253 6.81427 52.076 6.81427V8.81427ZM55.156 9.51427L53.9366 11.0995C53.8898 11.0635 53.9133 11.0515 53.9574 11.1736C54.0078 11.3131 54.066 11.5817 54.066 12.0343H56.066H58.066C58.066 10.5665 57.7058 8.95241 56.3754 7.92903L55.156 9.51427ZM56.066 12.0343H54.066C54.066 12.7177 53.9222 13.3197 53.6472 13.8698L55.436 14.7643L57.2249 15.6587C57.7898 14.5288 58.066 13.3109 58.066 12.0343H56.066ZM55.436 14.7643L53.6264 13.9127C53.3638 14.4706 53.0042 14.9631 52.5351 15.3987L53.896 16.8643L55.2569 18.3299C56.0945 17.5521 56.7615 16.6446 57.2457 15.6159L55.436 14.7643ZM53.896 16.8643L52.579 15.3591C50.9275 16.8042 49.5691 18.4452 48.5195 20.282L50.256 21.2743L51.9925 22.2666C52.8096 20.8367 53.8778 19.5377 55.213 18.3694L53.896 16.8643ZM50.256 21.2743L48.5195 20.282C47.4817 22.0983 46.7341 24.0626 46.2725 26.1655L48.226 26.5943L50.1795 27.0231C50.5579 25.2993 51.1637 23.717 51.9925 22.2666L50.256 21.2743ZM48.226 26.5943L46.2725 26.1655C45.8176 28.238 45.596 30.4602 45.596 32.8243H47.596H49.596C49.596 30.7083 49.7945 28.7772 50.1795 27.0231L48.226 26.5943ZM47.596 32.8243H45.596C45.596 34.9324 45.9046 36.8954 46.5564 38.6878L48.436 38.0043L50.3156 37.3208C49.8474 36.0332 49.596 34.5428 49.596 32.8243H47.596ZM48.436 38.0043L46.5831 38.757C47.319 40.5686 48.4507 42.0671 49.986 43.1891L51.166 41.5743L52.346 39.9595C51.4546 39.3081 50.7663 38.4266 50.2889 37.2515L48.436 38.0043ZM51.166 41.5743L49.986 43.1891C51.609 44.3751 53.5633 44.9043 55.716 44.9043V42.9043V40.9043C54.2287 40.9043 53.1497 40.5468 52.346 39.9595L51.166 41.5743ZM55.716 42.9043V44.9043C58.2958 44.9043 60.685 43.9543 62.8454 42.226L61.596 40.6643L60.3466 39.1025C58.7736 40.3609 57.2429 40.9043 55.716 40.9043V42.9043ZM61.596 40.6643L62.8266 42.2409C65.0857 40.4777 66.8094 37.9607 68.0709 34.8322L66.216 34.0843L64.3611 33.3363C63.2893 35.9945 61.933 37.8642 60.3655 39.0876L61.596 40.6643ZM66.216 34.0843L68.0604 34.8577C69.4049 31.6517 70.036 27.8249 70.036 23.4443H68.036H66.036C66.036 27.4636 65.4538 30.7302 64.3716 33.3108L66.216 34.0843ZM68.036 23.4443H70.036C70.036 21.4131 69.7823 19.5272 69.245 17.8077L67.336 18.4043L65.4271 19.0008C65.823 20.268 66.036 21.7421 66.036 23.4443H68.036ZM67.336 18.4043L69.2655 17.878C68.7661 16.0468 67.8951 14.473 66.5778 13.2812L65.236 14.7643L63.8942 16.2473C64.5369 16.8288 65.0659 17.6818 65.4065 18.9305L67.336 18.4043ZM65.236 14.7643L66.5778 13.2812C65.1486 11.9881 63.3231 11.4343 61.316 11.4343V13.4343V15.4343C62.5756 15.4343 63.3634 15.7671 63.8942 16.2473L65.236 14.7643ZM61.316 13.4343V11.4343C59.4588 11.4343 57.7566 11.6912 56.2581 12.2676L56.976 14.1343L57.694 16.001C58.6221 15.644 59.8132 15.4343 61.316 15.4343V13.4343ZM56.976 14.1343L56.2581 12.2676C54.8248 12.8189 53.5395 13.5984 52.4181 14.6077L53.756 16.0943L55.0939 17.5809C55.8392 16.9102 56.7006 16.383 57.694 16.001L56.976 14.1343ZM53.756 16.0943L52.4607 14.5704C51.4833 15.4012 50.5104 16.3015 49.5418 17.2701L50.956 18.6843L52.3702 20.0985C53.2683 19.2004 54.1621 18.374 55.0513 17.6182L53.756 16.0943ZM50.956 18.6843L49.6046 17.21C49.1531 17.6238 48.6667 17.9789 48.1437 18.2778L49.136 20.0143L50.1283 21.7508C50.912 21.303 51.6389 20.7714 52.3075 20.1586L50.956 18.6843ZM49.136 20.0143L48.1437 18.2778C47.7692 18.4918 47.432 18.5743 47.106 18.5743V20.5743V22.5743C48.1801 22.5743 49.1962 22.2834 50.1283 21.7508L49.136 20.0143ZM47.106 20.5743V18.5743C46.2012 18.5743 45.365 18.2448 44.5302 17.4101L43.116 18.8243L41.7018 20.2385C43.2004 21.7371 45.0242 22.5743 47.106 22.5743V20.5743ZM43.116 18.8243L44.5588 17.4392C43.8114 16.6607 43.436 15.7402 43.436 14.5543H41.436H39.436C39.436 16.7284 40.1806 18.6545 41.6732 20.2093L43.116 18.8243ZM41.436 14.5543H43.436C43.436 14.029 43.6588 13.2305 44.421 12.1073L42.766 10.9843L41.1111 9.86127C40.0999 11.3514 39.436 12.9329 39.436 14.5543H41.436ZM42.766 10.9843L44.4389 12.0803C45.1519 10.9922 46.2563 9.88063 47.8359 8.77066L46.686 7.13427L45.5361 5.49789C43.6624 6.81459 42.1535 8.26972 41.0931 9.88822L42.766 10.9843ZM46.686 7.13427L47.865 8.74986C49.3927 7.63504 51.2728 6.69563 53.5375 5.95527L52.916 4.05428L52.2945 2.15329C49.7058 2.99959 47.4327 4.11351 45.5071 5.51869L46.686 7.13427ZM52.916 4.05428L53.5269 5.95871C55.7673 5.24007 58.3558 4.86428 61.316 4.86428V2.86428V0.864276C58.0228 0.864276 55.0114 1.28181 52.3052 2.14985L52.916 4.05428ZM61.316 2.86428V4.86428C65.0606 4.86428 67.9064 5.6482 70.0066 7.04838L71.116 5.38428L72.2254 3.72018C69.2857 1.76035 65.5981 0.864276 61.316 0.864276V2.86428ZM71.116 5.38428L70.0423 7.0716C72.2206 8.45778 73.8524 10.464 74.9252 13.1873L76.786 12.4543L78.6468 11.7212C77.293 8.28451 75.1448 5.57744 72.1898 3.69695L71.116 5.38428ZM76.786 12.4543L74.9349 13.2115C76.0735 15.9948 76.676 19.3886 76.676 23.4443H78.676H80.676C80.676 19.0067 80.0185 15.0737 78.6371 11.697L76.786 12.4543ZM78.676 23.4443H76.676C76.676 28.3107 76.022 32.4837 74.7631 36.0001L76.646 36.6743L78.529 37.3484C79.9767 33.3049 80.676 28.6579 80.676 23.4443H78.676ZM76.646 36.6743L74.7583 36.0136C73.5238 39.5408 71.8743 42.3995 69.8436 44.6417L71.326 45.9843L72.8084 47.3268C75.2577 44.6224 77.1549 41.2745 78.5337 37.335L76.646 36.6743ZM71.326 45.9843L69.8296 44.6573C67.8039 46.9416 65.5515 48.6318 63.0738 49.7657L63.906 51.5843L64.7383 53.4029C67.7672 52.0168 70.4614 49.9736 72.8224 47.3113L71.326 45.9843ZM63.906 51.5843L63.0995 49.7541C60.5856 50.8619 58.0593 51.4043 55.506 51.4043V53.4043V55.4043C58.6461 55.4043 61.7198 54.7333 64.7125 53.4144L63.906 51.5843ZM98.923 51.3043L98.0049 53.0811L98.0167 53.0872L98.0285 53.0931L98.923 51.3043ZM92.343 44.5843L90.5541 45.4787L90.5623 45.4951L90.5708 45.5113L92.343 44.5843ZM91.713 22.6743L93.582 23.3863L93.5856 23.3765L91.713 22.6743ZM95.843 15.1143L94.2812 13.8649L94.2778 13.8692L95.843 15.1143ZM100.883 10.4243L101.926 12.1308L101.932 12.1269L101.939 12.1228L100.883 10.4243ZM108.233 9.51427L109.452 7.92903L109.452 7.92903L108.233 9.51427ZM108.513 14.7643L106.724 13.8698L106.713 13.8911L106.703 13.9127L108.513 14.7643ZM106.973 16.8643L108.29 18.3694L108.312 18.35L108.334 18.3299L106.973 16.8643ZM103.333 21.2743L101.596 20.282L101.596 20.282L103.333 21.2743ZM101.303 26.5943L103.256 27.0231L103.256 27.0231L101.303 26.5943ZM101.513 38.0043L99.6334 38.6878L99.6461 38.7226L99.66 38.757L101.513 38.0043ZM104.243 41.5743L105.423 39.9595L105.423 39.9595L104.243 41.5743ZM114.673 40.6643L113.442 39.0876L113.433 39.095L113.424 39.1025L114.673 40.6643ZM119.293 34.0843L117.449 33.3108L117.443 33.3235L117.438 33.3363L119.293 34.0843ZM120.413 18.4043L118.483 18.9305L118.493 18.9659L118.504 19.0008L120.413 18.4043ZM110.053 14.1343L110.771 16.001L110.771 16.001L110.053 14.1343ZM106.833 16.0943L108.128 17.6182L108.15 17.5998L108.171 17.5809L106.833 16.0943ZM104.033 18.6843L105.384 20.1586L105.416 20.1292L105.447 20.0985L104.033 18.6843ZM102.213 20.0143L103.205 21.7508L103.205 21.7508L102.213 20.0143ZM96.193 18.8243L94.7502 20.2093L94.7643 20.2241L94.7788 20.2385L96.193 18.8243ZM95.843 10.9843L97.4979 12.1073L97.507 12.0939L97.5159 12.0803L95.843 10.9843ZM99.763 7.13427L100.913 8.77066L100.927 8.76039L100.942 8.74986L99.763 7.13427ZM105.993 4.05428L105.382 2.14982L105.371 2.15329L105.993 4.05428ZM124.193 5.38428L123.084 7.04838L123.101 7.06018L123.119 7.0716L124.193 5.38428ZM129.863 12.4543L128.002 13.1873L128.007 13.1995L128.012 13.2115L129.863 12.4543ZM129.723 36.6743L127.84 36.0001L127.838 36.0068L127.835 36.0136L129.723 36.6743ZM124.403 45.9843L122.921 44.6417L122.914 44.6495L122.907 44.6573L124.403 45.9843ZM116.983 51.5843L117.789 53.4144L117.802 53.4088L117.815 53.4029L116.983 51.5843ZM108.583 53.4043V51.4043C105.203 51.4043 102.298 50.7556 99.8174 49.5154L98.923 51.3043L98.0285 53.0931C101.148 54.6529 104.683 55.4043 108.583 55.4043V53.4043ZM98.923 51.3043L99.841 49.5274C97.4381 48.2859 95.5285 46.3593 94.1152 43.6573L92.343 44.5843L90.5708 45.5113C92.3308 48.876 94.8079 51.4293 98.0049 53.0811L98.923 51.3043ZM92.343 44.5843L94.1318 43.6899C92.7733 40.9729 92.033 37.3858 92.033 32.8243H90.033H88.033C88.033 37.7827 88.8326 42.0357 90.5541 45.4787L92.343 44.5843ZM90.033 32.8243H92.033C92.033 29.1899 92.5651 26.0556 93.5819 23.3863L91.713 22.6743L89.844 21.9623C88.6209 25.173 88.033 28.8054 88.033 32.8243H90.033ZM91.713 22.6743L93.5856 23.3765C94.6474 20.545 95.9297 18.218 97.4082 16.3593L95.843 15.1143L94.2778 13.8692C92.4896 16.1172 91.0185 18.8302 89.8403 21.972L91.713 22.6743ZM95.843 15.1143L97.4047 16.3637C98.9891 14.3832 100.502 13.001 101.926 12.1308L100.883 10.4243L99.8401 8.71771C97.904 9.90084 96.0569 11.6453 94.2812 13.8649L95.843 15.1143ZM100.883 10.4243L101.939 12.1228C103.571 11.1085 104.602 10.8143 105.153 10.8143V8.81427V6.81427C103.464 6.81427 101.649 7.59341 99.8271 8.7257L100.883 10.4243ZM105.153 8.81427V10.8143C105.778 10.8143 106.239 10.8656 106.565 10.9395C106.724 10.9758 106.837 11.0143 106.911 11.0463C106.986 11.0782 107.014 11.0997 107.014 11.0995L108.233 9.51427L109.452 7.92903C108.299 7.04198 106.702 6.81427 105.153 6.81427V8.81427ZM108.233 9.51427L107.014 11.0995C106.967 11.0635 106.99 11.0515 107.034 11.1736C107.085 11.3131 107.143 11.5817 107.143 12.0343H109.143H111.143C111.143 10.5665 110.783 8.95241 109.452 7.92903L108.233 9.51427ZM109.143 12.0343H107.143C107.143 12.7177 106.999 13.3197 106.724 13.8698L108.513 14.7643L110.302 15.6587C110.867 14.5288 111.143 13.3109 111.143 12.0343H109.143ZM108.513 14.7643L106.703 13.9127C106.441 14.4706 106.081 14.9631 105.612 15.3987L106.973 16.8643L108.334 18.3299C109.171 17.5521 109.838 16.6446 110.323 15.6159L108.513 14.7643ZM106.973 16.8643L105.656 15.3591C104.004 16.8042 102.646 18.4452 101.596 20.282L103.333 21.2743L105.069 22.2666C105.887 20.8367 106.955 19.5377 108.29 18.3694L106.973 16.8643ZM103.333 21.2743L101.596 20.282C100.559 22.0983 99.8111 24.0626 99.3495 26.1655L101.303 26.5943L103.256 27.0231C103.635 25.2993 104.241 23.717 105.069 22.2666L103.333 21.2743ZM101.303 26.5943L99.3495 26.1655C98.8945 28.238 98.673 30.4602 98.673 32.8243H100.673H102.673C102.673 30.7083 102.871 28.7772 103.256 27.0231L101.303 26.5943ZM100.673 32.8243H98.673C98.673 34.9324 98.9816 36.8954 99.6334 38.6878L101.513 38.0043L103.393 37.3208C102.924 36.0332 102.673 34.5428 102.673 32.8243H100.673ZM101.513 38.0043L99.66 38.757C100.396 40.5686 101.528 42.0671 103.063 43.1891L104.243 41.5743L105.423 39.9595C104.532 39.3081 103.843 38.4266 103.366 37.2515L101.513 38.0043ZM104.243 41.5743L103.063 43.1891C104.686 44.3751 106.64 44.9043 108.793 44.9043V42.9043V40.9043C107.306 40.9043 106.227 40.5468 105.423 39.9595L104.243 41.5743ZM108.793 42.9043V44.9043C111.373 44.9043 113.762 43.9543 115.922 42.226L114.673 40.6643L113.424 39.1025C111.851 40.3609 110.32 40.9043 108.793 40.9043V42.9043ZM114.673 40.6643L115.904 42.2409C118.163 40.4777 119.886 37.9607 121.148 34.8322L119.293 34.0843L117.438 33.3363C116.366 35.9945 115.01 37.8642 113.442 39.0876L114.673 40.6643ZM119.293 34.0843L121.137 34.8577C122.482 31.6517 123.113 27.8249 123.113 23.4443H121.113H119.113C119.113 27.4636 118.531 30.7302 117.449 33.3108L119.293 34.0843ZM121.113 23.4443H123.113C123.113 21.4131 122.859 19.5272 122.322 17.8077L120.413 18.4043L118.504 19.0008C118.9 20.268 119.113 21.7421 119.113 23.4443H121.113ZM120.413 18.4043L122.342 17.878C121.843 16.0468 120.972 14.473 119.655 13.2812L118.313 14.7643L116.971 16.2473C117.614 16.8288 118.143 17.6818 118.483 18.9305L120.413 18.4043ZM118.313 14.7643L119.655 13.2812C118.226 11.9881 116.4 11.4343 114.393 11.4343V13.4343V15.4343C115.653 15.4343 116.44 15.7671 116.971 16.2473L118.313 14.7643ZM114.393 13.4343V11.4343C112.536 11.4343 110.834 11.6912 109.335 12.2676L110.053 14.1343L110.771 16.001C111.699 15.644 112.89 15.4343 114.393 15.4343V13.4343ZM110.053 14.1343L109.335 12.2676C107.902 12.8189 106.616 13.5984 105.495 14.6077L106.833 16.0943L108.171 17.5809C108.916 16.9102 109.778 16.383 110.771 16.001L110.053 14.1343ZM106.833 16.0943L105.538 14.5704C104.56 15.4012 103.587 16.3015 102.619 17.2701L104.033 18.6843L105.447 20.0985C106.345 19.2004 107.239 18.374 108.128 17.6182L106.833 16.0943ZM104.033 18.6843L102.682 17.21C102.23 17.6238 101.744 17.9789 101.221 18.2778L102.213 20.0143L103.205 21.7508C103.989 21.303 104.716 20.7714 105.384 20.1586L104.033 18.6843ZM102.213 20.0143L101.221 18.2778C100.846 18.4918 100.509 18.5743 100.183 18.5743V20.5743V22.5743C101.257 22.5743 102.273 22.2834 103.205 21.7508L102.213 20.0143ZM100.183 20.5743V18.5743C99.2781 18.5743 98.4419 18.2448 97.6072 17.4101L96.193 18.8243L94.7788 20.2385C96.2773 21.7371 98.1011 22.5743 100.183 22.5743V20.5743ZM96.193 18.8243L97.6357 17.4392C96.8884 16.6607 96.513 15.7402 96.513 14.5543H94.513H92.513C92.513 16.7284 93.2575 18.6545 94.7502 20.2093L96.193 18.8243ZM94.513 14.5543H96.513C96.513 14.029 96.7358 13.2305 97.4979 12.1073L95.843 10.9843L94.188 9.86127C93.1768 11.3514 92.513 12.9329 92.513 14.5543H94.513ZM95.843 10.9843L97.5159 12.0803C98.2288 10.9922 99.3333 9.88063 100.913 8.77066L99.763 7.13427L98.6131 5.49789C96.7393 6.81459 95.2304 8.26972 94.17 9.88822L95.843 10.9843ZM99.763 7.13427L100.942 8.74986C102.47 7.63504 104.35 6.69563 106.614 5.95527L105.993 4.05428L105.371 2.15329C102.783 2.99959 100.51 4.11351 98.584 5.51869L99.763 7.13427ZM105.993 4.05428L106.604 5.95871C108.844 5.24007 111.433 4.86428 114.393 4.86428V2.86428V0.864276C111.1 0.864276 108.088 1.28181 105.382 2.14985L105.993 4.05428ZM114.393 2.86428V4.86428C118.138 4.86428 120.983 5.6482 123.084 7.04838L124.193 5.38428L125.302 3.72018C122.363 1.76035 118.675 0.864276 114.393 0.864276V2.86428ZM124.193 5.38428L123.119 7.0716C125.298 8.45778 126.929 10.464 128.002 13.1873L129.863 12.4543L131.724 11.7212C130.37 8.28451 128.222 5.57744 125.267 3.69695L124.193 5.38428ZM129.863 12.4543L128.012 13.2115C129.15 15.9948 129.753 19.3886 129.753 23.4443H131.753H133.753C133.753 19.0067 133.095 15.0737 131.714 11.697L129.863 12.4543ZM131.753 23.4443H129.753C129.753 28.3107 129.099 32.4837 127.84 36.0001L129.723 36.6743L131.606 37.3484C133.054 33.3049 133.753 28.6579 133.753 23.4443H131.753ZM129.723 36.6743L127.835 36.0136C126.601 39.5408 124.951 42.3995 122.921 44.6417L124.403 45.9843L125.885 47.3268C128.335 44.6224 130.232 41.2745 131.611 37.335L129.723 36.6743ZM124.403 45.9843L122.907 44.6573C120.881 46.9416 118.628 48.6318 116.151 49.7657L116.983 51.5843L117.815 53.4029C120.844 52.0168 123.538 49.9736 125.899 47.3113L124.403 45.9843ZM116.983 51.5843L116.176 49.7541C113.663 50.8619 111.136 51.4043 108.583 51.4043V53.4043V55.4043C111.723 55.4043 114.797 54.7333 117.789 53.4144L116.983 51.5843ZM148.287 36.8143L148.404 38.8108L148.411 38.8104L148.287 36.8143ZM144.647 35.4143L143.072 36.6469L143.085 36.664L143.099 36.6808L144.647 35.4143ZM144.367 28.3443L142.739 27.1818L142.734 27.1896L142.728 27.1974L144.367 28.3443ZM148.847 26.1043L148.43 24.1482L148.419 24.1505L148.409 24.1528L148.847 26.1043ZM157.737 24.6343L157.5 22.6484L157.496 22.6488L157.737 24.6343ZM167.047 23.7943L166.926 21.7979L166.926 21.7979L167.047 23.7943ZM181.397 25.0543L180.188 26.6477L180.188 26.6477L181.397 25.0543ZM182.517 31.8443L181.005 30.5344L180.998 30.5427L182.517 31.8443ZM179.087 32.8243V30.8243H179.077L179.067 30.8244L179.087 32.8243ZM166.977 33.4543L166.75 31.4672L166.75 31.4672L166.977 33.4543ZM158.717 34.7843L159.125 36.7422L159.144 36.7382L159.163 36.7337L158.717 34.7843ZM152.907 36.1143L153.365 38.0611L153.385 38.0564L153.405 38.0513L152.907 36.1143ZM160.117 49.2743L158.702 50.6885L158.736 50.7221L158.771 50.7542L160.117 49.2743ZM158.437 44.7243L160.432 44.5882L160.432 44.5807L160.431 44.5732L158.437 44.7243ZM158.157 36.1843L160.156 36.22L160.156 36.2194L158.157 36.1843ZM158.437 28.6243L156.443 28.4709L156.441 28.4888L156.44 28.5068L158.437 28.6243ZM158.857 21.5543L156.86 21.4345L156.859 21.4536L156.858 21.4727L158.857 21.5543ZM158.927 14.4143L156.928 14.4809L156.928 14.4911L158.927 14.4143ZM159.697 11.0543L161.361 12.1637L161.374 12.1431L161.388 12.1223L159.697 11.0543ZM167.467 11.7543L165.952 13.0602L165.963 13.0733L165.975 13.0863L167.467 11.7543ZM169.077 25.2643L171.075 25.337L171.075 25.337L169.077 25.2643ZM168.727 32.9643L166.73 32.8553L166.729 32.8735L166.728 32.8916L168.727 32.9643ZM168.447 40.1043L170.445 40.1912L170.445 40.1893L168.447 40.1043ZM166.977 49.3443L165.562 47.9301L165.543 47.9492L165.525 47.9688L166.977 49.3443ZM148.287 36.8143L148.169 34.8177C147.079 34.8819 146.545 34.5765 146.195 34.1478L144.647 35.4143L143.099 36.6808C144.428 38.3054 146.321 38.9334 148.404 38.8108L148.287 36.8143ZM144.647 35.4143L146.222 34.1817C145.665 33.4704 145.387 32.6706 145.387 31.7043H143.387H141.387C141.387 33.538 141.948 35.2115 143.072 36.6469L144.647 35.4143ZM143.387 31.7043H145.387C145.387 30.7456 145.62 30.0407 146.005 29.4912L144.367 28.3443L142.728 27.1974C141.806 28.5146 141.387 30.0496 141.387 31.7043H143.387ZM144.367 28.3443L145.994 29.5068C146.238 29.1646 147.085 28.5496 149.285 28.0557L148.847 26.1043L148.409 24.1528C146.035 24.6856 143.895 25.5639 142.739 27.1818L144.367 28.3443ZM148.847 26.1043L149.264 28.0603C152.048 27.4669 154.953 26.9864 157.977 26.6197L157.737 24.6343L157.496 22.6488C154.361 23.0288 151.338 23.5283 148.43 24.1482L148.847 26.1043ZM157.737 24.6343L157.974 26.6202C161.063 26.2514 164.127 25.9749 167.168 25.7906L167.047 23.7943L166.926 21.7979C163.806 21.987 160.664 22.2705 157.5 22.6484L157.737 24.6343ZM167.047 23.7943L167.168 25.7906C170.212 25.6061 173.088 25.5143 175.797 25.5143V23.5143V21.5143C172.998 21.5143 170.041 21.6091 166.926 21.7979L167.047 23.7943ZM175.797 23.5143V25.5143C177.911 25.5143 179.298 25.9722 180.188 26.6477L181.397 25.0543L182.605 23.4609C180.789 22.083 178.442 21.5143 175.797 21.5143V23.5143ZM181.397 25.0543L180.188 26.6477C181.033 27.2889 181.427 28.0711 181.427 29.1843H183.427H185.427C185.427 26.8441 184.467 24.873 182.605 23.4609L181.397 25.0543ZM183.427 29.1843H181.427C181.427 29.8573 181.248 30.2548 181.005 30.5344L182.517 31.8443L184.028 33.1541C184.999 32.0337 185.427 30.6579 185.427 29.1843H183.427ZM182.517 31.8443L180.998 30.5427C181.053 30.4781 181.024 30.5608 180.69 30.6562C180.357 30.7512 179.84 30.8243 179.087 30.8243V32.8243V34.8243C180.876 34.8243 182.853 34.5252 184.035 33.1459L182.517 31.8443ZM179.087 32.8243L179.067 30.8244C174.22 30.8714 170.109 31.0833 166.75 31.4672L166.977 33.4543L167.204 35.4413C170.378 35.0786 174.34 34.8705 179.106 34.8242L179.087 32.8243ZM166.977 33.4543L166.75 31.4672C163.438 31.8457 160.606 32.2995 158.27 32.8348L158.717 34.7843L159.163 36.7337C161.307 36.2424 163.982 35.8095 167.204 35.4413L166.977 33.4543ZM158.717 34.7843L158.309 32.8263C156.048 33.2972 154.08 33.7475 152.409 34.1773L152.907 36.1143L153.405 38.0513C155 37.6411 156.905 37.2047 159.125 36.7422L158.717 34.7843ZM152.907 36.1143L152.449 34.1674C150.962 34.5173 149.533 34.7324 148.162 34.8182L148.287 36.8143L148.411 38.8104C150.026 38.7094 151.678 38.4579 153.365 38.0611L152.907 36.1143ZM163.617 50.6743V48.6743C162.84 48.6743 162.145 48.4157 161.462 47.7944L160.117 49.2743L158.771 50.7542C160.141 51.9995 161.78 52.6743 163.617 52.6743V50.6743ZM160.117 49.2743L161.531 47.8601C161.025 47.3545 160.555 46.3868 160.432 44.5882L158.437 44.7243L156.441 44.8603C156.599 47.1684 157.248 49.234 158.702 50.6885L160.117 49.2743ZM158.437 44.7243L160.431 44.5732C160.201 41.5445 160.111 38.761 160.156 36.22L158.157 36.1843L156.157 36.1486C156.109 38.8342 156.205 41.744 156.442 44.8754L158.437 44.7243ZM158.157 36.1843L160.156 36.2194C160.203 33.5837 160.295 31.0914 160.433 28.7417L158.437 28.6243L156.44 28.5068C156.298 30.9172 156.204 33.4648 156.157 36.1492L158.157 36.1843ZM158.437 28.6243L160.431 28.7777C160.619 26.3286 160.761 23.9479 160.855 21.6358L158.857 21.5543L156.858 21.4727C156.766 23.734 156.627 26.0666 156.443 28.4709L158.437 28.6243ZM158.857 21.5543L160.853 21.6741C160.997 19.2728 161.021 16.8271 160.925 14.3374L158.927 14.4143L156.928 14.4911C157.019 16.8548 156.996 19.1691 156.86 21.4345L158.857 21.5543ZM158.927 14.4143L160.926 14.3476C160.888 13.2075 161.107 12.5448 161.361 12.1637L159.697 11.0543L158.033 9.94487C157.167 11.2438 156.872 12.821 156.928 14.4809L158.927 14.4143ZM159.697 11.0543L161.388 12.1223C161.439 12.0413 161.652 11.7243 162.777 11.7243V9.72427V7.72427C160.915 7.72427 159.075 8.29394 158.006 9.98629L159.697 11.0543ZM162.777 9.72427V11.7243C164.218 11.7243 165.205 12.1935 165.952 13.0602L167.467 11.7543L168.981 10.4484C167.395 8.60838 165.255 7.72427 162.777 7.72427V9.72427ZM167.467 11.7543L165.975 13.0863C166.647 13.839 167.217 15.3934 167.217 18.2643H169.217H171.217C171.217 15.0684 170.62 12.2829 168.959 10.4222L167.467 11.7543ZM169.217 18.2643H167.217C167.217 20.3354 167.171 22.644 167.078 25.1916L169.077 25.2643L171.075 25.337C171.169 22.7512 171.217 20.3931 171.217 18.2643H169.217ZM169.077 25.2643L167.078 25.1916C166.985 27.7462 166.869 30.3007 166.73 32.8553L168.727 32.9643L170.724 33.0732C170.864 30.4945 170.982 27.9157 171.075 25.337L169.077 25.2643ZM168.727 32.9643L166.728 32.8916C166.635 35.4548 166.542 37.8306 166.448 40.0192L168.447 40.1043L170.445 40.1893C170.538 37.9912 170.632 35.6071 170.725 33.037L168.727 32.9643ZM168.447 40.1043L166.449 40.0174C166.355 42.1772 166.307 43.9362 166.307 45.2843H168.307H170.307C170.307 44.019 170.352 42.3247 170.445 40.1912L168.447 40.1043ZM168.307 45.2843H166.307C166.307 46.8136 165.933 47.5594 165.562 47.9301L166.977 49.3443L168.391 50.7585C169.794 49.3558 170.307 47.395 170.307 45.2843H168.307ZM166.977 49.3443L165.525 47.9688C165.119 48.3971 164.555 48.6743 163.617 48.6743V50.6743V52.6743C165.478 52.6743 167.154 52.0647 168.429 50.7198L166.977 49.3443Z" fill="url(#paint1_linear_504_9264)" mask="url(#path-1-outside-1_504_9264)"/>
<defs>
<linearGradient id="paint0_linear_504_9264" x1="177.917" y1="12.6688" x2="22.2373" y2="-119.875" gradientUnits="userSpaceOnUse">
<stop stop-color="#FF0000"/>
<stop offset="0.25" stop-color="#FFC700"/>
<stop offset="0.5" stop-color="#45F7D7"/>
<stop offset="0.75" stop-color="#4643FF"/>
<stop offset="1" stop-color="#FF00D6"/>
</linearGradient>
<linearGradient id="paint1_linear_504_9264" x1="177.917" y1="12.6688" x2="22.2373" y2="-119.875" gradientUnits="userSpaceOnUse">
<stop stop-color="#FF0000"/>
<stop offset="0.25" stop-color="#FFC700"/>
<stop offset="0.5" stop-color="#45F7D7"/>
<stop offset="0.75" stop-color="#4643FF"/>
<stop offset="1" stop-color="#FF00D6"/>
</linearGradient>
</defs>
</svg>
