<svg width="188" height="162" viewBox="0 0 188 162" fill="none" xmlns="http://www.w3.org/2000/svg">
<path fill-rule="evenodd" clip-rule="evenodd" d="M178.451 51.1837C177.074 60.9708 177.033 62.0229 173.791 59.9215C171.061 58.1412 169.576 56.8319 167.464 55.6894C166.713 55.2854 165.739 55.4054 165.151 56.0309C164.394 56.7847 163.28 57.9434 161.97 59.4282C158.006 63.7772 157.323 63.9869 155.986 61.5893C154.405 58.7559 154.905 56.5568 157.827 53.5779C160.805 50.5561 160.798 50.6056 157.854 48.5444C154.81 46.4698 153.374 44.0589 153.696 41.6847C154.627 34.8093 157.475 39.0736 179.715 25.8671C184.916 22.794 188.194 20.1654 186.639 26.8053C185.95 30.0364 183.867 36.8566 178.451 51.1837ZM148.154 74.7833C142.329 82.4565 137.877 84.8254 136.685 80.9867C135.623 77.6695 136.05 77.1228 143.481 70.9769C150.126 65.4296 153.251 68.0189 148.154 74.7833ZM129.45 92.7504C125.359 96.1755 114.695 102.387 113.211 102.186C109.65 101.704 110.119 95.2693 113.862 93.6609C116.438 92.4987 125.96 86.5353 127.516 85.0839C129.424 83.2771 131.408 85.3593 131.542 89.2056C131.588 90.723 131.274 91.1842 129.45 92.7504ZM112.217 88.7031C110.589 92.9152 108.006 88.183 108.819 82.5508C109.743 76.4802 108.83 74.2914 103.946 70.5571C100.248 67.739 100.128 63.7938 103.77 64.791C110.624 66.6262 115.418 80.3218 112.217 88.7031ZM100.885 105.05C97.1681 106.46 86.3152 102.169 84.4394 98.5401C82.5997 95.0167 83.8066 92.0572 86.3822 93.8669C88.4967 95.3623 93.0684 96.9387 96.7781 97.4413C101.576 98.0913 104.602 103.639 100.885 105.05ZM91.6015 121.523C87.4648 126.402 75.8426 131.88 73.049 130.191C69.547 128.155 71.0002 124.121 76.0745 121.988C77.8903 121.226 81.3374 119.578 83.7148 118.389C93.0199 113.655 92.6536 113.757 93.2759 115.856C93.8982 117.955 93.5194 119.264 91.6015 121.523ZM91.2671 70.4512C86.1134 74.2864 81.4556 82.2689 81.4486 87.1539C81.4767 91.0363 78.6688 88.3388 78.0286 83.7691C76.7508 74.9825 89.0853 58.671 93.0622 63.8943C94.7726 66.1409 94.1877 68.2276 91.2671 70.4512ZM59.4759 136.311C54.2861 140.041 42.2267 141.681 40.6888 138.904C38.5925 135.043 39.7937 133.242 44.8581 132.669C50.6418 131.991 57.7709 129.935 59.2548 130.136C61.8269 130.484 61.9338 134.529 59.4759 136.311ZM27.9863 140.457C19.3919 142.919 1.8716 139.135 0.921258 134.624C0.271202 131.615 0.729786 131.576 13.5382 132.959C19.9391 133.675 25.9644 134.189 26.931 134.118C30.8469 133.843 31.8116 139.363 27.9863 140.457Z" fill="white"/>
</svg>
