<svg width="54" height="54" viewBox="0 0 54 54" fill="none" xmlns="http://www.w3.org/2000/svg">
<g filter="url(#filter0_d_2746_541)">
<path d="M4 17C4 9.26801 10.268 3 18 3H36C43.732 3 50 9.26801 50 17V35C50 42.732 43.732 49 36 49H18C10.268 49 4 42.732 4 35V17Z" fill="white"/>
<g clip-path="url(#clip0_2746_541)">
<path d="M34.4375 12H19.5625C15.9381 12 13 14.9381 13 18.5625V33.4375C13 37.0619 15.9381 40 19.5625 40H34.4375C38.0619 40 41 37.0619 41 33.4375V18.5625C41 14.9381 38.0619 12 34.4375 12Z" fill="url(#paint0_radial_2746_541)"/>
<path d="M34.4375 12H19.5625C15.9381 12 13 14.9381 13 18.5625V33.4375C13 37.0619 15.9381 40 19.5625 40H34.4375C38.0619 40 41 37.0619 41 33.4375V18.5625C41 14.9381 38.0619 12 34.4375 12Z" fill="url(#paint1_radial_2746_541)"/>
<path d="M27.001 15.0625C24.0306 15.0625 23.6577 15.0755 22.4911 15.1286C21.3267 15.1819 20.5319 15.3662 19.8365 15.6367C19.117 15.9161 18.5068 16.2898 17.8989 16.8979C17.2905 17.5059 16.9167 18.1161 16.6365 18.8353C16.3653 19.5309 16.1807 20.3261 16.1283 21.4899C16.0762 22.6566 16.0625 23.0296 16.0625 26.0001C16.0625 28.9706 16.0756 29.3423 16.1286 30.5089C16.1822 31.6733 16.3665 32.4681 16.6367 33.1635C16.9163 33.883 17.29 34.4932 17.8981 35.1011C18.5059 35.7095 19.1161 36.0842 19.8351 36.3635C20.531 36.634 21.326 36.8183 22.4901 36.8717C23.6568 36.9247 24.0294 36.9377 26.9997 36.9377C29.9704 36.9377 30.3421 36.9247 31.5087 36.8717C32.6731 36.8183 33.4688 36.634 34.1647 36.3635C34.8839 36.0842 35.4932 35.7095 36.1009 35.1011C36.7093 34.4932 37.083 33.883 37.3633 33.1638C37.6321 32.4681 37.8167 31.6731 37.8714 30.5091C37.9238 29.3425 37.9375 28.9706 37.9375 26.0001C37.9375 23.0296 37.9238 22.6568 37.8714 21.4901C37.8167 20.3257 37.6321 19.531 37.3633 18.8356C37.083 18.1161 36.7093 17.5059 36.1009 16.8979C35.4925 16.2896 34.8841 15.9158 34.1641 15.6368C33.4668 15.3662 32.6715 15.1818 31.5071 15.1286C30.3404 15.0755 29.969 15.0625 26.9976 15.0625H27.001ZM26.0198 17.0335C26.311 17.0331 26.636 17.0335 27.001 17.0335C29.9214 17.0335 30.2675 17.044 31.4207 17.0964C32.4871 17.1452 33.0659 17.3234 33.4515 17.4731C33.9619 17.6713 34.3258 17.9083 34.7084 18.2912C35.0912 18.6741 35.3281 19.0386 35.5269 19.5491C35.6766 19.9341 35.855 20.5129 35.9036 21.5793C35.956 22.7323 35.9673 23.0786 35.9673 25.9976C35.9673 28.9166 35.956 29.263 35.9036 30.4159C35.8548 31.4823 35.6766 32.0611 35.5269 32.4462C35.3287 32.9567 35.0912 33.3201 34.7084 33.7027C34.3256 34.0855 33.9622 34.3225 33.4515 34.5208C33.0664 34.6711 32.4871 34.8489 31.4207 34.8977C30.2677 34.95 29.9214 34.9614 27.001 34.9614C24.0805 34.9614 23.7343 34.95 22.5814 34.8977C21.515 34.8484 20.9361 34.6703 20.5503 34.5205C20.0399 34.3222 19.6753 34.0853 19.2925 33.7025C18.9096 33.3197 18.6727 32.956 18.474 32.4454C18.3243 32.0602 18.1459 31.4814 18.0973 30.415C18.0449 29.262 18.0344 28.9157 18.0344 25.9949C18.0344 23.074 18.0449 22.7296 18.0973 21.5765C18.1461 20.5101 18.3243 19.9313 18.474 19.5458C18.6723 19.0353 18.9096 18.6708 19.2926 18.288C19.6755 17.9052 20.0399 17.6681 20.5504 17.4695C20.9359 17.3191 21.515 17.1414 22.5814 17.0924C23.5903 17.0468 23.9814 17.0331 26.0198 17.0308V17.0335ZM32.8394 18.8496C32.1148 18.8496 31.5269 19.437 31.5269 20.1617C31.5269 20.8863 32.1148 21.4742 32.8394 21.4742C33.564 21.4742 34.1519 20.8863 34.1519 20.1617C34.1519 19.4371 33.564 18.8492 32.8394 18.8492V18.8496ZM27.001 20.3832C23.8991 20.3832 21.3841 22.8981 21.3841 26.0001C21.3841 29.1021 23.8991 31.6159 27.001 31.6159C30.103 31.6159 32.6171 29.1021 32.6171 26.0001C32.6171 22.8982 30.1028 20.3832 27.0008 20.3832H27.001ZM27.001 22.3542C29.0145 22.3542 30.6469 23.9864 30.6469 26.0001C30.6469 28.0136 29.0145 29.646 27.001 29.646C24.9875 29.646 23.3552 28.0136 23.3552 26.0001C23.3552 23.9864 24.9874 22.3542 27.001 22.3542Z" fill="white"/>
</g>
</g>
<defs>
<filter id="filter0_d_2746_541" x="0" y="0" width="54" height="54" filterUnits="userSpaceOnUse" color-interpolation-filters="sRGB">
<feFlood flood-opacity="0" result="BackgroundImageFix"/>
<feColorMatrix in="SourceAlpha" type="matrix" values="0 0 0 0 0 0 0 0 0 0 0 0 0 0 0 0 0 0 127 0" result="hardAlpha"/>
<feOffset dy="1"/>
<feGaussianBlur stdDeviation="2"/>
<feColorMatrix type="matrix" values="0 0 0 0 0 0 0 0 0 0 0 0 0 0 0 0 0 0 0.15 0"/>
<feBlend mode="normal" in2="BackgroundImageFix" result="effect1_dropShadow_2746_541"/>
<feBlend mode="normal" in="SourceGraphic" in2="effect1_dropShadow_2746_541" result="shape"/>
</filter>
<radialGradient id="paint0_radial_2746_541" cx="0" cy="0" r="1" gradientUnits="userSpaceOnUse" gradientTransform="translate(20.4375 42.1565) rotate(-90) scale(27.7501 25.8098)">
<stop stop-color="#FFDD55"/>
<stop offset="0.1" stop-color="#FFDD55"/>
<stop offset="0.5" stop-color="#FF543E"/>
<stop offset="1" stop-color="#C837AB"/>
</radialGradient>
<radialGradient id="paint1_radial_2746_541" cx="0" cy="0" r="1" gradientUnits="userSpaceOnUse" gradientTransform="translate(8.30989 14.017) rotate(78.681) scale(12.4044 51.1315)">
<stop stop-color="#3771C8"/>
<stop offset="0.128" stop-color="#3771C8"/>
<stop offset="1" stop-color="#6600FF" stop-opacity="0"/>
</radialGradient>
<clipPath id="clip0_2746_541">
<rect width="28" height="28" fill="white" transform="translate(13 12)"/>
</clipPath>
</defs>
</svg>
