<svg width="123" height="76" viewBox="0 0 123 76" fill="none" xmlns="http://www.w3.org/2000/svg">
<g clip-path="url(#clip0_1179_4104)">
<path d="M78.65 4.71875L78.9266 4.75828L79.5194 5.11406L80.1911 5.58842L80.7444 6.02326L81.2581 6.4581L81.6927 6.81387L82.1669 7.24871L82.7597 7.80214L83.471 8.51369L83.8266 8.94853L84.3008 9.46242L84.7355 10.0159L85.2887 10.7274L85.6838 11.3204L85.6443 11.5575L85.5258 11.6761L83.8266 11.8738L82.3645 12.0714L80.9814 12.3086L79.4008 12.6249L77.7411 13.0597L76.5952 13.4155L75.4887 13.8108L74.3428 14.2852L73.3944 14.72L72.4065 15.2339L71.3396 15.8664L70.5888 16.3803L69.8775 16.8942L69.3242 17.329L68.8896 17.6848L68.3363 18.1592L67.8622 18.594L66.8743 19.5823L66.5976 19.8985L66.1234 20.4519L65.7283 20.9658L65.2146 21.6379L64.7009 22.3494L64.1476 23.2981L63.7525 24.0097L63.3968 24.6817L62.2114 24.6027L59.9985 24.3655L58.3388 24.1283L56.8767 23.8516L55.4937 23.5353L54.2687 23.1796L53.834 23.0214L53.9525 22.6261L54.3872 21.4797L55.0195 20.1357L55.4146 19.3846L55.9678 18.4359L56.7582 17.25L57.2324 16.5779L57.7065 15.9454L58.1412 15.392L58.5759 14.8781L58.9315 14.4433L59.4848 13.8503L59.7614 13.5341L60.8283 12.4668L61.1444 12.19L61.5396 11.8343L62.0928 11.3599L62.7251 10.846L63.3573 10.3716L64.1081 9.8182L64.7009 9.42289L65.5702 8.86946L66.4396 8.35557L67.388 7.84167L67.9807 7.52542L69.0871 7.01153L70.3517 6.49763L71.3 6.14185L72.446 5.78608L73.6315 5.46983L74.6194 5.23265L75.8839 4.99546L77.3065 4.83734L78.65 4.71875Z" fill="white"/>
<path d="M37.0395 24.3252L37.1976 24.4043L37.7508 25.1158L38.4621 25.9855L38.8968 26.4994L39.3314 26.9737L39.6081 27.29L40.8726 28.555L41.3072 28.9107L41.8605 29.3851L42.4137 29.82L43.1645 30.3734L44.0734 31.0059L44.7056 31.4012L45.6935 31.9941L46.4048 32.3894L47.3137 32.8638L48.5387 33.4568L49.8427 34.0102L51.2653 34.5241L52.4507 34.9194L54.0314 35.3542L54.9402 35.5914L56.2048 35.8681L57.6668 36.1053L59.208 36.303L60.9072 36.4611L62.5273 36.5402L63.9104 36.5797H68.0991L68.1781 36.8564L68.2966 38.0819L68.3362 38.7539V40.6513L68.2176 41.9163L67.941 43.4975L67.7434 44.3672L67.7039 44.4067L66.5579 44.4463H63.9499L62.1717 44.3672L60.433 44.2091L58.062 43.9324L56.0467 43.6161L54.5451 43.3394L52.4903 42.8651L51.0282 42.4697L49.8822 42.114L48.4991 41.6396L46.879 41.0071L45.8121 40.5327L44.7056 40.0189L43.8363 39.5445L42.7693 38.912L41.7024 38.2004L41.0306 37.7261L40.4774 37.2912L39.8847 36.7773L39.2524 36.1844L38.6597 35.5914L38.4226 35.1961L38.146 34.445L37.8298 33.4172L37.5137 32.0732L37.2371 30.5315L37.079 29.1084L37 27.8434V25.5111L37.0395 24.3252Z" fill="white"/>
<path d="M78.176 13.7314L78.3735 13.771L78.7687 14.3244L79.1639 14.8383L79.5985 15.4708L80.3889 16.6567L80.9421 17.5659L81.2977 18.1589L81.8905 19.2262L82.2066 19.8587L82.6413 20.6888L83.0759 21.6771L83.5501 22.863L84.0638 24.2466L84.538 25.7488L84.9332 27.2114L85.2888 28.7926L85.5655 30.2552L85.8025 32.0737L85.9606 33.6944L86.0001 34.3664V38.4381L85.8816 40.6913L85.8025 41.6005L85.6445 41.9958L85.1703 42.6283L84.7751 43.1422L83.9058 44.17L83.5501 44.5653L83.1155 45.0397L82.1671 45.9884L81.851 46.2651L81.3768 46.7L80.9421 47.0558L80.2703 47.6092L79.5985 48.1231L78.8873 48.637L77.9784 49.2695L77.7018 49.4276H77.6227L77.8203 48.3207L78.0574 46.9372L78.2945 45.1188L78.5316 42.5888L78.5711 41.9958L78.6106 40.5727V38.8334L78.5711 37.1336L78.4131 35.4733L78.2155 33.9316L77.9389 32.4294L77.6227 31.0063L77.3066 29.8204L76.7139 27.8834L76.2397 26.5394L75.726 25.3534L75.2913 24.3652L74.9357 23.5746L74.6195 22.9421L74.0268 21.7957L73.5921 21.0051L73.197 20.3331L72.6832 19.4634L72.0905 18.5542L71.7744 18.0798L71.4187 17.6054L71.1816 17.2497L71.3792 17.052L72.13 16.5776L72.7228 16.1823L73.5526 15.708L74.659 15.115L75.6469 14.6406L76.6744 14.2453L78.176 13.7314Z" fill="white"/>
<path d="M39.8846 14.7988L40.0821 14.9965L40.4378 15.3918L40.8725 15.9452L41.3467 16.4986L41.7813 17.0125L42.2555 17.5264L42.5321 17.8427L43.6386 18.9495L43.9547 19.2263L44.2313 19.503L44.666 19.8587L45.0612 20.2145L45.5749 20.6098L46.2861 21.1237L46.9974 21.5981L47.6297 21.9934L48.3015 22.3887L49.2103 22.8631L50.1192 23.2979L51.2256 23.7723L52.6087 24.2862L53.7151 24.642L54.9401 24.9582L56.2047 25.2349L57.5877 25.4721L58.6942 25.6302L60.1562 25.7883L61.3417 25.8674L63.7127 25.9465L63.9893 26.0255L64.3845 26.658L64.8586 27.4091L65.4119 28.3578L65.8465 29.188L66.3603 30.2948L66.874 31.5203L67.4667 33.3387L67.8223 34.7223V34.8804H64.1078L62.2901 34.7618L60.4724 34.5641L58.8917 34.327L56.995 33.9712L55.4538 33.6154L53.8337 33.141L51.7789 32.469L50.7514 32.0737L49.2103 31.4412L47.9063 30.8087L46.8394 30.2553L45.9305 29.7414L45.2587 29.3461L43.7176 28.3183L42.9668 27.7649L42.2555 27.2114L41.7418 26.7766L41.3467 26.4604L41.07 26.1836L40.7539 25.9069L39.3709 24.5234L39.0942 24.2071L38.5805 23.6142L38.2249 23.1793L37.7507 22.5864L37.4346 22.1515V21.5981L37.6322 20.5703L38.0273 19.0286L38.462 17.7241L38.8571 16.7358L39.3313 15.7476L39.845 14.8384L39.8846 14.7988Z" fill="white"/>
<path d="M65.4128 -0.104492H66.7169L68.0999 0.0931609L69.4435 0.369875L70.866 0.765181L72.8418 1.4372L74.3434 2.06969L75.3709 2.54406L76.5563 3.13702L76.5959 3.21608L76.2007 3.29514L74.2249 3.65092L72.1701 4.16481L71.1427 4.48106L69.8781 4.9159L68.7322 5.39026L67.3096 6.06228L66.5193 6.45759L65.6104 6.97149L64.8201 7.44586L63.1604 8.55271L62.6862 8.90849L62.133 9.34332L61.1451 10.1339L60.5919 10.6083L60.1177 11.0431L59.8016 11.3199L59.525 11.5966L59.2088 11.8733L58.6951 12.3872L58.4185 12.7034L57.9443 13.1778L57.6677 13.494L57.1935 14.0475L56.6403 14.7195L56.1661 15.352L55.6524 16.0635L55.1782 16.7355L54.7435 17.4076L54.2298 18.2772L53.7556 19.1074L53.1234 20.4514L52.4911 22.1117L52.3331 22.5861L51.9774 22.4675L50.871 22.0327L49.5669 21.4002L48.6186 20.8467L47.9073 20.4119L47.275 19.9771L46.5637 19.4632L45.9315 18.9888L45.3387 18.4749L45.1807 18.3168L45.2202 18.0796L45.6549 17.1704L46.129 16.2612L46.6428 15.352L47.354 14.1661L47.7887 13.494L48.3419 12.6639L48.8952 11.9128L49.3694 11.2803L49.7645 10.7664L50.1992 10.2525L50.5548 9.81769L50.95 9.38286L51.2266 9.06661L51.5822 8.6713L52.1355 8.07835L53.2024 7.01102L53.5185 6.7343L53.9137 6.37853L54.2298 6.10181L55.3363 5.15308L56.4427 4.28341L57.233 3.69045L57.8653 3.25561L58.458 2.8603L59.2088 2.38594L60.3548 1.71392L61.2241 1.23955L62.212 0.765181L62.8048 0.527998L63.437 0.290814L64.3459 0.0536303L65.4128 -0.104492Z" fill="white"/>
<path d="M69.6404 18.5938L69.838 18.7914L70.3912 19.582L70.7864 20.2145L71.2606 20.9656L71.8138 21.9143L72.6041 23.456L72.9202 24.0885L73.2759 24.8396L73.8686 26.2232L74.2243 27.1324L74.659 28.3183L75.0936 29.6228L75.4888 30.9668L75.8444 32.4295L76.1606 33.9712L76.4372 35.8291L76.6347 37.7661L76.7138 39.0706V41.9563L76.5952 43.7748L76.3581 46.1071L76.1606 47.5697L75.8839 49.1509L75.6468 50.2578L75.5283 50.574L75.1331 50.8112L73.6711 51.4832L72.1299 52.0762L70.7864 52.4715L69.2848 52.8273L67.9017 53.104H67.6646L67.7041 52.8273L68.2574 51.1274L68.7711 49.23L69.2057 47.293L69.6404 44.9211L69.838 43.5376L69.9566 42.1935L69.9961 41.1657V38.7939L69.917 37.6475L69.759 36.2639L69.5219 34.8804L69.1662 33.3782L68.8896 32.4295L68.4549 31.204L67.9412 30.0181L67.467 28.9903L67.0719 28.2788L66.5582 27.3695L66.0445 26.5394L65.1751 25.2744L64.9775 24.9977L65.0171 24.6815L65.4912 23.8118L65.9654 23.0607L66.3211 22.5073L66.7162 21.9539L67.1904 21.3214L67.7041 20.6889L68.0598 20.254L68.6525 19.6215L69.3638 18.8309L69.6404 18.5938Z" fill="white"/>
</g>
<path d="M15.0742 71V56.6836H17.8184V71H15.0742ZM20.6406 59.2227V56.6836H23.3848V59.2227H20.6406ZM20.6406 71V60.6289H23.3848V71H20.6406ZM26.1094 71V56.6836H28.8535V64.2812L32.0664 60.6289H35.4453L31.9004 64.418L35.6992 71H32.7402L30.1328 66.3418L28.8535 67.6797V71H26.1094ZM43.3457 67.6992L46.0801 68.1582C45.7285 69.1608 45.1719 69.9258 44.4102 70.4531C43.6549 70.974 42.7077 71.2344 41.5684 71.2344C39.765 71.2344 38.4303 70.6452 37.5645 69.4668C36.8809 68.5228 36.5391 67.3314 36.5391 65.8926C36.5391 64.1738 36.9883 62.8294 37.8867 61.8594C38.7852 60.8828 39.9212 60.3945 41.2949 60.3945C42.8379 60.3945 44.0553 60.9056 44.9473 61.9277C45.8392 62.9434 46.2656 64.5026 46.2266 66.6055H39.3516C39.3711 67.4193 39.5924 68.054 40.0156 68.5098C40.4388 68.959 40.9661 69.1836 41.5977 69.1836C42.0273 69.1836 42.3887 69.0664 42.6816 68.832C42.9746 68.5977 43.196 68.2201 43.3457 67.6992ZM43.502 64.9258C43.4824 64.1315 43.2773 63.5293 42.8867 63.1191C42.4961 62.7025 42.0208 62.4941 41.4609 62.4941C40.862 62.4941 40.3672 62.7122 39.9766 63.1484C39.5859 63.5846 39.3939 64.1771 39.4004 64.9258H43.502ZM56.8906 71L52.7109 60.6289H55.5918L57.5449 65.9219L58.1113 67.6895C58.2611 67.2402 58.3555 66.944 58.3945 66.8008C58.4857 66.5078 58.5833 66.2148 58.6875 65.9219L60.6602 60.6289H63.4824L59.3613 71H56.8906ZM64.5371 65.668C64.5371 64.7565 64.7617 63.8743 65.2109 63.0215C65.6602 62.1686 66.2949 61.5176 67.1152 61.0684C67.9421 60.6191 68.8633 60.3945 69.8789 60.3945C71.4479 60.3945 72.7337 60.9056 73.7363 61.9277C74.7389 62.9434 75.2402 64.2292 75.2402 65.7852C75.2402 67.3542 74.7324 68.6562 73.7168 69.6914C72.7077 70.7201 71.4349 71.2344 69.8984 71.2344C68.9479 71.2344 68.0397 71.0195 67.1738 70.5898C66.3145 70.1602 65.6602 69.5319 65.2109 68.7051C64.7617 67.8717 64.5371 66.8594 64.5371 65.668ZM67.3496 65.8145C67.3496 66.8431 67.5938 67.6309 68.082 68.1777C68.5703 68.7246 69.1725 68.998 69.8887 68.998C70.6048 68.998 71.2038 68.7246 71.6855 68.1777C72.1738 67.6309 72.418 66.8366 72.418 65.7949C72.418 64.7793 72.1738 63.998 71.6855 63.4512C71.2038 62.9043 70.6048 62.6309 69.8887 62.6309C69.1725 62.6309 68.5703 62.9043 68.082 63.4512C67.5938 63.998 67.3496 64.7858 67.3496 65.8145ZM77.3984 71V56.6836H80.1426V71H77.3984ZM82.9648 71V56.6836H85.709V71H82.9648ZM94.5371 67.6992L97.2715 68.1582C96.9199 69.1608 96.3633 69.9258 95.6016 70.4531C94.8464 70.974 93.8991 71.2344 92.7598 71.2344C90.9564 71.2344 89.6217 70.6452 88.7559 69.4668C88.0723 68.5228 87.7305 67.3314 87.7305 65.8926C87.7305 64.1738 88.1797 62.8294 89.0781 61.8594C89.9766 60.8828 91.1126 60.3945 92.4863 60.3945C94.0293 60.3945 95.2467 60.9056 96.1387 61.9277C97.0306 62.9434 97.457 64.5026 97.418 66.6055H90.543C90.5625 67.4193 90.7839 68.054 91.207 68.5098C91.6302 68.959 92.1576 69.1836 92.7891 69.1836C93.2188 69.1836 93.5801 69.0664 93.873 68.832C94.166 68.5977 94.3874 68.2201 94.5371 67.6992ZM94.6934 64.9258C94.6738 64.1315 94.4688 63.5293 94.0781 63.1191C93.6875 62.7025 93.2122 62.4941 92.6523 62.4941C92.0534 62.4941 91.5586 62.7122 91.168 63.1484C90.7773 63.5846 90.5853 64.1771 90.5918 64.9258H94.6934ZM98.3652 60.6289H101.285L103.766 67.9922L106.188 60.6289H109.029L105.367 70.6094L104.713 72.416C104.472 73.0215 104.241 73.4837 104.02 73.8027C103.805 74.1217 103.554 74.3789 103.268 74.5742C102.988 74.776 102.639 74.9323 102.223 75.043C101.812 75.1536 101.347 75.209 100.826 75.209C100.299 75.209 99.7812 75.1536 99.2734 75.043L99.0293 72.8945C99.459 72.9792 99.8464 73.0215 100.191 73.0215C100.829 73.0215 101.301 72.8327 101.607 72.4551C101.913 72.084 102.148 71.6087 102.311 71.0293L98.3652 60.6289Z" fill="white"/>
<defs>
<clipPath id="clip0_1179_4104">
<rect width="74" height="53" fill="white" transform="translate(24.5)"/>
</clipPath>
</defs>
</svg>
