<svg width="22" height="15" viewBox="0 0 22 15" fill="none" xmlns="http://www.w3.org/2000/svg">
<g clip-path="url(#clip0_3646_7685)">
<path d="M15.8999 1.27734L15.9789 1.28864L16.1483 1.39029L16.3402 1.52582L16.4983 1.65006L16.645 1.7743L16.7692 1.87595L16.9047 2.00019L17.074 2.15831L17.2772 2.36162L17.3789 2.48586L17.5143 2.63268L17.6385 2.79081L17.7966 2.99411L17.9095 3.16353L17.8982 3.23129L17.8643 3.26518L17.3789 3.32165L16.9611 3.37812L16.566 3.44589L16.1144 3.53624L15.6402 3.66048L15.3128 3.76213L14.9967 3.87508L14.6693 4.01061L14.3984 4.13485L14.1161 4.28168L13.8113 4.46239L13.5968 4.60922L13.3936 4.75605L13.2355 4.88029L13.1113 4.98194L12.9533 5.11747L12.8178 5.24171L12.5355 5.52408L12.4565 5.61443L12.321 5.77255L12.2081 5.91938L12.0614 6.11139L11.9146 6.31469L11.7566 6.58576L11.6437 6.78906L11.5421 6.98107L11.2034 6.95848L10.5711 6.89071L10.097 6.82294L9.67924 6.74388L9.2841 6.65353L8.93412 6.55188L8.80993 6.5067L8.8438 6.39375L8.96799 6.06621L9.14862 5.6822L9.26152 5.4676L9.41958 5.19654L9.64537 4.8577L9.78085 4.66569L9.91633 4.48498L10.0405 4.32686L10.1647 4.18003L10.2663 4.05579L10.4244 3.88637L10.5034 3.79602L10.8082 3.49107L10.8985 3.412L11.0114 3.31035L11.1695 3.17482L11.3501 3.02799L11.5308 2.89246L11.7453 2.73433L11.9146 2.62139L12.163 2.46327L12.4114 2.31644L12.6823 2.16961L12.8517 2.07925L13.1678 1.93242L13.529 1.7856L13.8 1.68395L14.1274 1.5823L14.4661 1.49194L14.7483 1.42417L15.1096 1.35641L15.516 1.31123L15.8999 1.27734Z" fill="white"/>
<path d="M4.01168 6.87891L4.05683 6.9015L4.21489 7.1048L4.41811 7.35328L4.54229 7.5001L4.66648 7.63564L4.74551 7.72599L5.10678 8.08742L5.23097 8.18907L5.38902 8.3246L5.54708 8.44884L5.76159 8.60697L6.02125 8.78768L6.20189 8.90062L6.48413 9.07004L6.68735 9.18298L6.94701 9.31852L7.29699 9.48794L7.66955 9.64606L8.07599 9.79289L8.41468 9.90583L8.86627 10.0301L9.12593 10.0978L9.48721 10.1769L9.90493 10.2447L10.3452 10.3011L10.8307 10.3463L11.2936 10.3689L11.6887 10.3802H12.8854L12.908 10.4593L12.9419 10.8094L12.9532 11.0014V11.5435L12.9193 11.905L12.8403 12.3567L12.7838 12.6052L12.7725 12.6165L12.4451 12.6278H11.7L11.192 12.6052L10.6952 12.56L10.0178 12.481L9.44205 12.3906L9.01304 12.3116L8.42597 12.176L8.00825 12.0631L7.68084 11.9614L7.2857 11.8259L6.82282 11.6452L6.518 11.5097L6.20189 11.3628L5.95351 11.2273L5.64869 11.0466L5.34387 10.8433L5.15194 10.7077L4.99388 10.5835L4.82454 10.4367L4.6439 10.2673L4.47455 10.0978L4.40682 9.98489L4.32779 9.7703L4.23747 9.47664L4.14715 9.09263L4.06812 8.65214L4.02296 8.24554L4.00039 7.88412V7.21774L4.01168 6.87891Z" fill="white"/>
<path d="M15.7644 3.85352L15.8208 3.86481L15.9337 4.02293L16.0466 4.16976L16.1708 4.35047L16.3966 4.68931L16.5547 4.94908L16.6563 5.1185L16.8256 5.42345L16.9159 5.60416L17.0401 5.84135L17.1643 6.12371L17.2998 6.46255L17.4466 6.85785L17.582 7.28704L17.6949 7.70494L17.7965 8.15672L17.8756 8.57462L17.9433 9.09416L17.9885 9.55724L17.9998 9.74924V10.9126L17.9659 11.5564L17.9433 11.8161L17.8982 11.9291L17.7627 12.1098L17.6498 12.2566L17.4014 12.5503L17.2998 12.6632L17.1756 12.7988L16.9047 13.0698L16.8143 13.1489L16.6789 13.2731L16.5547 13.3748L16.3627 13.5329L16.1708 13.6797L15.9676 13.8266L15.7079 14.0073L15.6289 14.0524H15.6063L15.6628 13.7362L15.7305 13.3409L15.7983 12.8213L15.866 12.0985L15.8773 11.9291L15.8886 11.5225V11.0255L15.8773 10.5399L15.8321 10.0655L15.7757 9.62501L15.6966 9.19581L15.6063 8.78921L15.516 8.45038L15.3467 7.89695L15.2112 7.51293L15.0644 7.1741L14.9402 6.89174L14.8386 6.66585L14.7483 6.48513L14.579 6.15759L14.4548 5.9317L14.3419 5.7397L14.1951 5.49122L14.0258 5.23144L13.9354 5.09591L13.8338 4.96038L13.7661 4.85873L13.8226 4.80225L14.0371 4.66672L14.2064 4.55377L14.4435 4.41824L14.7596 4.24882L15.0418 4.11329L15.3354 4.00034L15.7644 3.85352Z" fill="white"/>
<path d="M4.82467 4.1582L4.88112 4.21468L4.98273 4.32762L5.10692 4.48574L5.24239 4.64387L5.36658 4.7907L5.50206 4.93752L5.58109 5.02788L5.8972 5.34413L5.98752 5.42319L6.06655 5.50225L6.19073 5.6039L6.30363 5.70555L6.4504 5.81849L6.65361 5.96532L6.85683 6.10086L7.03746 6.2138L7.22939 6.32675L7.48905 6.46228L7.74872 6.58652L8.06483 6.72205L8.45997 6.86888L8.77609 6.97053L9.12607 7.06089L9.48734 7.13995L9.88248 7.20772L10.1986 7.2529L10.6163 7.29807L10.955 7.32066L11.6324 7.34325L11.7114 7.36584L11.8243 7.54655L11.9598 7.76115L12.1179 8.03222L12.242 8.2694L12.3888 8.58565L12.5356 8.93578L12.7049 9.45532L12.8065 9.85063V9.89581H11.7453L11.226 9.86193L10.7066 9.80545L10.255 9.73769L9.71314 9.63603L9.27284 9.53438L8.80996 9.39885L8.22289 9.20684L7.92935 9.0939L7.48905 8.91319L7.11649 8.73248L6.81167 8.57435L6.55201 8.42752L6.36008 8.31458L5.91978 8.02092L5.70527 7.8628L5.50206 7.70468L5.35529 7.58044L5.24239 7.49008L5.16337 7.41102L5.07305 7.33196L4.67791 6.93665L4.59888 6.84629L4.45211 6.67688L4.3505 6.55264L4.21503 6.38322L4.12471 6.25898V6.10086L4.18116 5.8072L4.29405 5.36671L4.41824 4.994L4.53114 4.71163L4.66662 4.42927L4.81338 4.1695L4.82467 4.1582Z" fill="white"/>
<path d="M12.1178 -0.0996094H12.4904L12.8855 -0.0431369L13.2694 0.0359246L13.6758 0.14887L14.2403 0.340876L14.6693 0.521588L14.9629 0.657122L15.3015 0.82654L15.3128 0.849129L15.1999 0.871718L14.6355 0.973368L14.0484 1.1202L13.7549 1.21055L13.3936 1.33479L13.0662 1.47033L12.6597 1.66233L12.434 1.77528L12.1743 1.92211L11.9485 2.05764L11.4743 2.37389L11.3388 2.47554L11.1808 2.59978L10.8985 2.82567L10.7405 2.9612L10.605 3.08544L10.5147 3.1645L10.4357 3.24356L10.3453 3.32262L10.1986 3.46945L10.1196 3.55981L9.98408 3.69534L9.90505 3.7857L9.76957 3.94382L9.61151 4.13583L9.47604 4.31654L9.32927 4.51984L9.19379 4.71185L9.06961 4.90385L8.92284 5.15233L8.78736 5.38952L8.60673 5.77353L8.42609 6.2479L8.38093 6.38343L8.27932 6.34955L7.96321 6.22531L7.59065 6.0446L7.31969 5.88648L7.11648 5.76224L6.93584 5.638L6.73263 5.49117L6.55199 5.35563L6.38265 5.20881L6.33749 5.16363L6.34878 5.09586L6.47296 4.83609L6.60844 4.57631L6.75521 4.31654L6.95842 3.97771L7.08261 3.7857L7.24067 3.54851L7.39872 3.33392L7.5342 3.15321L7.6471 3.00638L7.77128 2.85955L7.87289 2.73531L7.98579 2.61107L8.06482 2.52071L8.16643 2.40777L8.32448 2.23835L8.62931 1.9334L8.71962 1.85434L8.83252 1.75269L8.92284 1.67363L9.23895 1.40256L9.55507 1.15408L9.78086 0.984663L9.9615 0.860423L10.1308 0.747478L10.3453 0.611944L10.6728 0.419938L10.9211 0.284404L11.2034 0.14887L11.3727 0.0811026L11.5534 0.0133356L11.813 -0.0544314L12.1178 -0.0996094Z" fill="white"/>
<path d="M13.3258 5.24219L13.3823 5.29866L13.5403 5.52455L13.6532 5.70526L13.7887 5.91986L13.9468 6.19093L14.1725 6.63141L14.2629 6.81212L14.3645 7.02672L14.5338 7.42203L14.6354 7.6818L14.7596 8.02063L14.8838 8.39335L14.9967 8.77737L15.0983 9.19526L15.1886 9.63575L15.2677 10.1666L15.3241 10.72L15.3467 11.0927V11.9172L15.3128 12.4368L15.2451 13.1032L15.1886 13.5211L15.1096 13.9728L15.0419 14.2891L15.008 14.3794L14.8951 14.4472L14.4774 14.6392L14.0371 14.8086L13.6532 14.9216L13.2242 15.0232L12.8291 15.1023H12.7613L12.7726 15.0232L12.9307 14.5376L13.0774 13.9954L13.2016 13.442L13.3258 12.7643L13.3823 12.369L13.4161 11.985L13.4274 11.6913V11.0137L13.4048 10.6861L13.3597 10.2908L13.2919 9.89552L13.1903 9.46633L13.1113 9.19526L12.9871 8.84513L12.8404 8.5063L12.7049 8.21264L12.592 8.00934L12.4452 7.74957L12.2984 7.51238L12.0501 7.15096L11.9936 7.0719L12.0049 6.98154L12.1404 6.73306L12.2759 6.51847L12.3775 6.36034L12.4904 6.20222L12.6258 6.02151L12.7726 5.8408L12.8742 5.71656L13.0436 5.53584L13.2468 5.30995L13.3258 5.24219Z" fill="white"/>
</g>
<defs>
<clipPath id="clip0_3646_7685">
<rect width="22" height="15" fill="white"/>
</clipPath>
</defs>
</svg>
