<svg width="122" height="76" viewBox="0 0 122 76" fill="none" xmlns="http://www.w3.org/2000/svg">
<g clip-path="url(#clip0_1231_86)">
<path d="M78.15 4.71875L78.4266 4.75828L79.0194 5.11406L79.6911 5.58842L80.2444 6.02326L80.7581 6.4581L81.1927 6.81387L81.6669 7.24871L82.2597 7.80214L82.971 8.51369L83.3266 8.94853L83.8008 9.46242L84.2355 10.0159L84.7887 10.7274L85.1838 11.3204L85.1443 11.5575L85.0258 11.6761L83.3266 11.8738L81.8645 12.0714L80.4814 12.3086L78.9008 12.6249L77.2411 13.0597L76.0952 13.4155L74.9887 13.8108L73.8428 14.2852L72.8944 14.72L71.9065 15.2339L70.8396 15.8664L70.0888 16.3803L69.3775 16.8942L68.8242 17.329L68.3896 17.6848L67.8363 18.1592L67.3622 18.594L66.3743 19.5823L66.0976 19.8985L65.6234 20.4519L65.2283 20.9658L64.7146 21.6379L64.2009 22.3494L63.6476 23.2981L63.2525 24.0097L62.8968 24.6817L61.7114 24.6027L59.4985 24.3655L57.8388 24.1283L56.3767 23.8516L54.9937 23.5353L53.7687 23.1796L53.334 23.0214L53.4525 22.6261L53.8872 21.4797L54.5195 20.1357L54.9146 19.3846L55.4678 18.4359L56.2582 17.25L56.7324 16.5779L57.2065 15.9454L57.6412 15.392L58.0759 14.8781L58.4315 14.4433L58.9848 13.8503L59.2614 13.5341L60.3283 12.4668L60.6444 12.19L61.0396 11.8343L61.5928 11.3599L62.2251 10.846L62.8573 10.3716L63.6081 9.8182L64.2009 9.42289L65.0702 8.86946L65.9396 8.35557L66.888 7.84167L67.4807 7.52542L68.5871 7.01153L69.8517 6.49763L70.8 6.14185L71.946 5.78608L73.1315 5.46983L74.1194 5.23265L75.3839 4.99546L76.8065 4.83734L78.15 4.71875Z" fill="#FC5C15"/>
<path d="M36.5395 24.3259L36.6976 24.405L37.2508 25.1165L37.9621 25.9862L38.3968 26.5001L38.8314 26.9745L39.1081 27.2907L40.3726 28.5557L40.8072 28.9115L41.3605 29.3858L41.9137 29.8207L42.6645 30.3741L43.5734 31.0066L44.2056 31.4019L45.1935 31.9949L45.9048 32.3902L46.8137 32.8645L48.0387 33.4575L49.3427 34.0109L50.7653 34.5248L51.9507 34.9201L53.5314 35.355L54.4402 35.5922L55.7048 35.8689L57.1668 36.1061L58.708 36.3037L60.4072 36.4618L62.0273 36.5409L63.4104 36.5804H67.5991L67.6781 36.8571L67.7966 38.0826L67.8362 38.7546V40.6521L67.7176 41.9171L67.441 43.4983L67.2434 44.368L67.2039 44.4075L66.0579 44.447H63.4499L61.6717 44.368L59.933 44.2098L57.562 43.9331L55.5467 43.6169L54.0451 43.3402L51.9903 42.8658L50.5282 42.4705L49.3822 42.1147L47.9991 41.6403L46.379 41.0078L45.3121 40.5335L44.2056 40.0196L43.3363 39.5452L42.2693 38.9127L41.2024 38.2012L40.5306 37.7268L39.9774 37.292L39.3847 36.7781L38.7524 36.1851L38.1597 35.5922L37.9226 35.1968L37.646 34.4458L37.3298 33.418L37.0137 32.0739L36.7371 30.5322L36.579 29.1091L36.5 27.8442V25.5118L36.5395 24.3259Z" fill="#FC5C15"/>
<path d="M77.676 13.7314L77.8735 13.771L78.2687 14.3244L78.6639 14.8383L79.0985 15.4708L79.8889 16.6567L80.4421 17.5659L80.7977 18.1589L81.3905 19.2262L81.7066 19.8587L82.1413 20.6888L82.5759 21.6771L83.0501 22.863L83.5638 24.2466L84.038 25.7488L84.4332 27.2114L84.7888 28.7926L85.0655 30.2552L85.3025 32.0737L85.4606 33.6944L85.5001 34.3664V38.4381L85.3816 40.6913L85.3025 41.6005L85.1445 41.9958L84.6703 42.6283L84.2751 43.1422L83.4058 44.17L83.0501 44.5653L82.6155 45.0397L81.6671 45.9884L81.351 46.2651L80.8768 46.7L80.4421 47.0558L79.7703 47.6092L79.0985 48.1231L78.3873 48.637L77.4784 49.2695L77.2018 49.4276H77.1227L77.3203 48.3207L77.5574 46.9372L77.7945 45.1188L78.0316 42.5888L78.0711 41.9958L78.1106 40.5727V38.8334L78.0711 37.1336L77.9131 35.4733L77.7155 33.9316L77.4389 32.4294L77.1227 31.0063L76.8066 29.8204L76.2139 27.8834L75.7397 26.5394L75.226 25.3534L74.7913 24.3652L74.4357 23.5746L74.1195 22.9421L73.5268 21.7957L73.0921 21.0051L72.697 20.3331L72.1832 19.4634L71.5905 18.5542L71.2744 18.0798L70.9187 17.6054L70.6816 17.2497L70.8792 17.052L71.63 16.5776L72.2228 16.1823L73.0526 15.708L74.159 15.115L75.1469 14.6406L76.1744 14.2453L77.676 13.7314Z" fill="#FC5C15"/>
<path d="M39.3846 14.7991L39.5821 14.9967L39.9378 15.392L40.3725 15.9455L40.8467 16.4989L41.2813 17.0128L41.7555 17.5267L42.0321 17.8429L43.1386 18.9498L43.4547 19.2265L43.7313 19.5032L44.166 19.859L44.5612 20.2148L45.0749 20.6101L45.7861 21.124L46.4974 21.5983L47.1297 21.9936L47.8015 22.389L48.7103 22.8633L49.6192 23.2982L50.7256 23.7725L52.1087 24.2864L53.2151 24.6422L54.4401 24.9584L55.7047 25.2352L57.0877 25.4723L58.1942 25.6305L59.6562 25.7886L60.8417 25.8676L63.2127 25.9467L63.4893 26.0258L63.8845 26.6583L64.3586 27.4093L64.9119 28.3581L65.3465 29.1882L65.8603 30.2951L66.374 31.5205L66.9667 33.3389L67.3223 34.7225V34.8806H63.6078L61.7901 34.762L59.9724 34.5644L58.3917 34.3272L56.495 33.9714L54.9538 33.6156L53.3337 33.1413L51.2789 32.4693L50.2514 32.074L48.7103 31.4415L47.4063 30.809L46.3394 30.2555L45.4305 29.7416L44.7587 29.3463L43.2176 28.3185L42.4668 27.7651L41.7555 27.2117L41.2418 26.7768L40.8467 26.4606L40.57 26.1839L40.2539 25.9072L38.8709 24.5236L38.5942 24.2074L38.0805 23.6144L37.7249 23.1796L37.2507 22.5866L36.9346 22.1518V21.5983L37.1322 20.5705L37.5273 19.0288L37.962 17.7243L38.3571 16.7361L38.8313 15.7478L39.345 14.8386L39.3846 14.7991Z" fill="#FC5C15"/>
<path d="M64.9128 -0.104004H66.2169L67.5999 0.0936492L68.9435 0.370363L70.366 0.76567L72.3418 1.43769L73.8434 2.07018L74.8709 2.54455L76.0563 3.13751L76.0959 3.21657L75.7007 3.29563L73.7249 3.6514L71.6701 4.1653L70.6427 4.48155L69.3781 4.91638L68.2322 5.39075L66.8096 6.06277L66.0193 6.45808L65.1104 6.97198L64.3201 7.44634L62.6604 8.5532L62.1862 8.90898L61.633 9.34381L60.6451 10.1344L60.0919 10.6088L59.6177 11.0436L59.3016 11.3203L59.025 11.5971L58.7088 11.8738L58.1951 12.3877L57.9185 12.7039L57.4443 13.1783L57.1677 13.4945L56.6935 14.048L56.1403 14.72L55.6661 15.3525L55.1524 16.064L54.6782 16.736L54.2435 17.4081L53.7298 18.2777L53.2556 19.1079L52.6234 20.4519L51.9911 22.1122L51.8331 22.5866L51.4774 22.468L50.371 22.0331L49.0669 21.4007L48.1186 20.8472L47.4073 20.4124L46.775 19.9775L46.0637 19.4637L45.4315 18.9893L44.8387 18.4754L44.6807 18.3173L44.7202 18.0801L45.1549 17.1709L45.629 16.2617L46.1428 15.3525L46.854 14.1665L47.2887 13.4945L47.8419 12.6644L48.3952 11.9133L48.8694 11.2808L49.2645 10.7669L49.6992 10.253L50.0548 9.81818L50.45 9.38334L50.7266 9.0671L51.0822 8.67179L51.6355 8.07883L52.7024 7.01151L53.0185 6.73479L53.4137 6.37902L53.7298 6.1023L54.8363 5.15357L55.9427 4.28389L56.733 3.69094L57.3653 3.2561L57.958 2.86079L58.7088 2.38643L59.8548 1.7144L60.7241 1.24004L61.712 0.76567L62.3048 0.528486L62.937 0.291302L63.8459 0.0541186L64.9128 -0.104004Z" fill="#FC5C15"/>
<path d="M69.1404 18.5938L69.338 18.7914L69.8912 19.582L70.2864 20.2145L70.7606 20.9656L71.3138 21.9143L72.1041 23.456L72.4202 24.0885L72.7759 24.8396L73.3686 26.2232L73.7243 27.1324L74.159 28.3183L74.5936 29.6228L74.9888 30.9668L75.3444 32.4295L75.6606 33.9712L75.9372 35.8291L76.1347 37.7661L76.2138 39.0706V41.9563L76.0952 43.7748L75.8581 46.1071L75.6606 47.5697L75.3839 49.1509L75.1468 50.2578L75.0283 50.574L74.6331 50.8112L73.1711 51.4832L71.6299 52.0762L70.2864 52.4715L68.7848 52.8273L67.4017 53.104H67.1646L67.2041 52.8273L67.7574 51.1274L68.2711 49.23L68.7057 47.293L69.1404 44.9211L69.338 43.5376L69.4566 42.1935L69.4961 41.1657V38.7939L69.417 37.6475L69.259 36.2639L69.0219 34.8804L68.6662 33.3782L68.3896 32.4295L67.9549 31.204L67.4412 30.0181L66.967 28.9903L66.5719 28.2788L66.0582 27.3695L65.5445 26.5394L64.6751 25.2744L64.4775 24.9977L64.5171 24.6815L64.9912 23.8118L65.4654 23.0607L65.8211 22.5073L66.2162 21.9539L66.6904 21.3214L67.2041 20.6889L67.5598 20.254L68.1525 19.6215L68.8638 18.8309L69.1404 18.5938Z" fill="#FC5C15"/>
</g>
<path d="M14.5742 71V56.6836H17.3184V71H14.5742ZM20.1406 59.2227V56.6836H22.8848V59.2227H20.1406ZM20.1406 71V60.6289H22.8848V71H20.1406ZM25.6094 71V56.6836H28.3535V64.2812L31.5664 60.6289H34.9453L31.4004 64.418L35.1992 71H32.2402L29.6328 66.3418L28.3535 67.6797V71H25.6094ZM42.8457 67.6992L45.5801 68.1582C45.2285 69.1608 44.6719 69.9258 43.9102 70.4531C43.1549 70.974 42.2077 71.2344 41.0684 71.2344C39.265 71.2344 37.9303 70.6452 37.0645 69.4668C36.3809 68.5228 36.0391 67.3314 36.0391 65.8926C36.0391 64.1738 36.4883 62.8294 37.3867 61.8594C38.2852 60.8828 39.4212 60.3945 40.7949 60.3945C42.3379 60.3945 43.5553 60.9056 44.4473 61.9277C45.3392 62.9434 45.7656 64.5026 45.7266 66.6055H38.8516C38.8711 67.4193 39.0924 68.054 39.5156 68.5098C39.9388 68.959 40.4661 69.1836 41.0977 69.1836C41.5273 69.1836 41.8887 69.0664 42.1816 68.832C42.4746 68.5977 42.696 68.2201 42.8457 67.6992ZM43.002 64.9258C42.9824 64.1315 42.7773 63.5293 42.3867 63.1191C41.9961 62.7025 41.5208 62.4941 40.9609 62.4941C40.362 62.4941 39.8672 62.7122 39.4766 63.1484C39.0859 63.5846 38.8939 64.1771 38.9004 64.9258H43.002ZM56.3906 71L52.2109 60.6289H55.0918L57.0449 65.9219L57.6113 67.6895C57.7611 67.2402 57.8555 66.944 57.8945 66.8008C57.9857 66.5078 58.0833 66.2148 58.1875 65.9219L60.1602 60.6289H62.9824L58.8613 71H56.3906ZM64.0371 65.668C64.0371 64.7565 64.2617 63.8743 64.7109 63.0215C65.1602 62.1686 65.7949 61.5176 66.6152 61.0684C67.4421 60.6191 68.3633 60.3945 69.3789 60.3945C70.9479 60.3945 72.2337 60.9056 73.2363 61.9277C74.2389 62.9434 74.7402 64.2292 74.7402 65.7852C74.7402 67.3542 74.2324 68.6562 73.2168 69.6914C72.2077 70.7201 70.9349 71.2344 69.3984 71.2344C68.4479 71.2344 67.5397 71.0195 66.6738 70.5898C65.8145 70.1602 65.1602 69.5319 64.7109 68.7051C64.2617 67.8717 64.0371 66.8594 64.0371 65.668ZM66.8496 65.8145C66.8496 66.8431 67.0938 67.6309 67.582 68.1777C68.0703 68.7246 68.6725 68.998 69.3887 68.998C70.1048 68.998 70.7038 68.7246 71.1855 68.1777C71.6738 67.6309 71.918 66.8366 71.918 65.7949C71.918 64.7793 71.6738 63.998 71.1855 63.4512C70.7038 62.9043 70.1048 62.6309 69.3887 62.6309C68.6725 62.6309 68.0703 62.9043 67.582 63.4512C67.0938 63.998 66.8496 64.7858 66.8496 65.8145ZM76.8984 71V56.6836H79.6426V71H76.8984ZM82.4648 71V56.6836H85.209V71H82.4648ZM94.0371 67.6992L96.7715 68.1582C96.4199 69.1608 95.8633 69.9258 95.1016 70.4531C94.3464 70.974 93.3991 71.2344 92.2598 71.2344C90.4564 71.2344 89.1217 70.6452 88.2559 69.4668C87.5723 68.5228 87.2305 67.3314 87.2305 65.8926C87.2305 64.1738 87.6797 62.8294 88.5781 61.8594C89.4766 60.8828 90.6126 60.3945 91.9863 60.3945C93.5293 60.3945 94.7467 60.9056 95.6387 61.9277C96.5306 62.9434 96.957 64.5026 96.918 66.6055H90.043C90.0625 67.4193 90.2839 68.054 90.707 68.5098C91.1302 68.959 91.6576 69.1836 92.2891 69.1836C92.7188 69.1836 93.0801 69.0664 93.373 68.832C93.666 68.5977 93.8874 68.2201 94.0371 67.6992ZM94.1934 64.9258C94.1738 64.1315 93.9688 63.5293 93.5781 63.1191C93.1875 62.7025 92.7122 62.4941 92.1523 62.4941C91.5534 62.4941 91.0586 62.7122 90.668 63.1484C90.2773 63.5846 90.0853 64.1771 90.0918 64.9258H94.1934ZM97.8652 60.6289H100.785L103.266 67.9922L105.688 60.6289H108.529L104.867 70.6094L104.213 72.416C103.972 73.0215 103.741 73.4837 103.52 73.8027C103.305 74.1217 103.054 74.3789 102.768 74.5742C102.488 74.776 102.139 74.9323 101.723 75.043C101.312 75.1536 100.847 75.209 100.326 75.209C99.7988 75.209 99.2812 75.1536 98.7734 75.043L98.5293 72.8945C98.959 72.9792 99.3464 73.0215 99.6914 73.0215C100.329 73.0215 100.801 72.8327 101.107 72.4551C101.413 72.084 101.648 71.6087 101.811 71.0293L97.8652 60.6289Z" fill="black"/>
<defs>
<clipPath id="clip0_1231_86">
<rect width="74" height="53" fill="white" transform="translate(24)"/>
</clipPath>
</defs>
</svg>
