<svg width="22" height="22" viewBox="0 0 22 22" fill="none" xmlns="http://www.w3.org/2000/svg">
<path fill-rule="evenodd" clip-rule="evenodd" d="M11 21C5.47715 21 0.999998 16.5228 0.999998 11C0.999998 5.47715 5.47715 1 11 1C16.5228 1 21 5.47715 21 11C21 16.5228 16.5228 21 11 21Z" fill="#FC5C15" stroke="white" stroke-linecap="round"/>
<path fill-rule="evenodd" clip-rule="evenodd" d="M5.46731 9.52796C5.17573 9.23376 5.17785 8.75889 5.47204 8.46731C5.76624 8.17573 6.24111 8.17784 6.53269 8.47204L8.28 10.235C8.98914 10.9505 9.47718 11.4413 9.89071 11.7734C10.2924 12.096 10.5504 12.2067 10.7815 12.2361C10.9266 12.2546 11.0734 12.2546 11.2185 12.2361C11.4496 12.2067 11.7076 12.096 12.1093 11.7734C12.5228 11.4413 13.0109 10.9505 13.72 10.235L15.4673 8.47204C15.7589 8.17784 16.2338 8.17573 16.528 8.46731C16.8222 8.75889 16.8243 9.23376 16.5327 9.52796L14.7539 11.3227C14.084 11.9987 13.5364 12.5511 13.0485 12.9429C12.5412 13.3504 12.0263 13.6453 11.4082 13.7241C11.1371 13.7586 10.8629 13.7586 10.5918 13.7241C9.97372 13.6453 9.45878 13.3504 8.95146 12.9429C8.46359 12.5511 7.91605 11.9987 7.24611 11.3227L5.46731 9.52796Z" fill="white"/>
</svg>
