<svg width="69" height="68" viewBox="0 0 69 68" fill="none" xmlns="http://www.w3.org/2000/svg">
<rect x="0.5" width="68" height="68" rx="20" fill="white"/>
<path d="M14.7959 33.6202C25.2892 29.0482 32.2872 26.0335 35.7899 24.5762C45.7879 20.4182 47.8639 19.6962 49.2179 19.6722C49.5179 19.6662 50.1819 19.7402 50.6139 20.0922C50.9779 20.3862 51.0779 20.7862 51.1259 21.0662C51.1739 21.3462 51.2339 21.9842 51.1859 22.4822C50.6459 28.1762 48.2999 41.9902 47.1059 48.3662C46.6019 51.0622 45.6099 51.9662 44.6459 52.0562C42.5559 52.2482 40.9699 50.6762 38.9459 49.3482C35.7759 47.2702 33.9859 45.9762 30.9099 43.9502C27.3559 41.6082 29.6599 40.3202 31.6859 38.2162C32.2159 37.6662 41.4259 29.2882 41.6059 28.5282C41.6259 28.4322 41.6479 28.0782 41.4379 27.8922C41.2279 27.7042 40.9179 27.7682 40.6919 27.8202C40.3732 27.8922 35.3119 31.2375 25.5079 37.8562C24.0692 38.8429 22.7679 39.3235 21.6039 39.2982C20.3179 39.2702 17.8439 38.5722 16.0079 37.9742C13.7519 37.2402 11.9599 36.8542 12.1159 35.6082C12.1972 34.9602 13.0906 34.2975 14.7959 33.6202Z" fill="#FC5C15"/>
</svg>
