<svg width="54" height="54" viewBox="0 0 54 54" fill="none" xmlns="http://www.w3.org/2000/svg">
<g filter="url(#filter0_d_2746_536)">
<path d="M4 17C4 9.26801 10.268 3 18 3H36C43.732 3 50 9.26801 50 17V35C50 42.732 43.732 49 36 49H18C10.268 49 4 42.732 4 35V17Z" fill="white"/>
<path d="M15.5064 25.7781C21.6275 23.1111 25.7096 21.3526 27.7529 20.5025C33.585 18.077 34.796 17.6558 35.5859 17.6418C35.7609 17.6383 36.1482 17.6815 36.4002 17.8868C36.6125 18.0583 36.6709 18.2916 36.6989 18.455C36.7269 18.6183 36.7619 18.9905 36.7339 19.281C36.4189 22.6025 35.0504 30.6606 34.3539 34.38C34.0599 35.9526 33.4812 36.48 32.9189 36.5325C31.6997 36.6445 30.7745 35.7275 29.5939 34.9528C27.7447 33.7406 26.7005 32.9858 24.9062 31.804C22.833 30.4378 24.177 29.6865 25.3589 28.4591C25.668 28.1383 31.0405 23.2511 31.1455 22.8078C31.1572 22.7518 31.17 22.5453 31.0475 22.4368C30.925 22.3271 30.7442 22.3645 30.6124 22.3948C30.4265 22.4368 27.474 24.3882 21.755 28.2491C20.9158 28.8247 20.1567 29.1051 19.4777 29.0903C18.7275 29.074 17.2844 28.6668 16.2134 28.318C14.8974 27.8898 13.852 27.6646 13.943 26.9378C13.9905 26.5598 14.5116 26.1732 15.5064 25.7781Z" fill="#4D90F1"/>
</g>
<defs>
<filter id="filter0_d_2746_536" x="0" y="0" width="54" height="54" filterUnits="userSpaceOnUse" color-interpolation-filters="sRGB">
<feFlood flood-opacity="0" result="BackgroundImageFix"/>
<feColorMatrix in="SourceAlpha" type="matrix" values="0 0 0 0 0 0 0 0 0 0 0 0 0 0 0 0 0 0 127 0" result="hardAlpha"/>
<feOffset dy="1"/>
<feGaussianBlur stdDeviation="2"/>
<feColorMatrix type="matrix" values="0 0 0 0 0 0 0 0 0 0 0 0 0 0 0 0 0 0 0.15 0"/>
<feBlend mode="normal" in2="BackgroundImageFix" result="effect1_dropShadow_2746_536"/>
<feBlend mode="normal" in="SourceGraphic" in2="effect1_dropShadow_2746_536" result="shape"/>
</filter>
</defs>
</svg>
