<svg width="28" height="28" viewBox="0 0 28 28" fill="none" xmlns="http://www.w3.org/2000/svg">
<path d="M2.50636 13.7781C8.62747 11.1111 12.7096 9.35257 14.7529 8.50246C20.585 6.07696 21.796 5.65579 22.5859 5.64179C22.7609 5.63829 23.1482 5.68146 23.4002 5.88679C23.6125 6.05829 23.6709 6.29163 23.6989 6.45496C23.7269 6.61829 23.7619 6.99046 23.7339 7.28096C23.4189 10.6025 22.0504 18.6606 21.3539 22.38C21.0599 23.9526 20.4812 24.48 19.9189 24.5325C18.6997 24.6445 17.7745 23.7275 16.5939 22.9528C14.7447 21.7406 13.7005 20.9858 11.9062 19.804C9.83302 18.4378 11.177 17.6865 12.3589 16.4591C12.668 16.1383 18.0405 11.2511 18.1455 10.8078C18.1572 10.7518 18.17 10.5453 18.0475 10.4368C17.925 10.3271 17.7442 10.3645 17.6124 10.3948C17.4265 10.4368 14.474 12.3882 8.75502 16.2491C7.9158 16.8247 7.15669 17.1051 6.47769 17.0903C5.72752 17.074 4.28436 16.6668 3.21336 16.318C1.89736 15.8898 0.852022 15.6646 0.943022 14.9378C0.990467 14.5598 1.51158 14.1732 2.50636 13.7781Z" fill="#4D90F1"/>
</svg>
